<svg width="561" height="643" viewBox="0 0 561 643" fill="none" xmlns="http://www.w3.org/2000/svg">
<path d="M58.3916 416.968H526.861C525.233 355.022 498.619 299.04 456.896 258.308C415.174 217.576 358.337 192.095 296.262 191.146C232.838 190.216 174.217 214.998 131.022 255.866C87.8278 296.733 60.0673 353.665 58.3916 416.968Z" fill="#18B7A3"/>
<path d="M58.3916 416.316H526.861C525.233 478.262 498.619 534.244 456.896 574.976C415.174 615.708 358.337 641.189 296.262 642.139C232.838 643.095 174.217 618.293 131.022 577.418C87.8278 536.544 60.0673 479.619 58.3916 416.316Z" fill="#353519"/>
<path d="M59.0155 416.323C52.5007 413.202 47.362 407.793 44.579 401.127C41.8889 394.846 41.7285 387.768 44.1312 381.372C46.2341 376.102 49.9908 371.657 54.8365 368.706C59.8907 365.597 65.7691 364.095 71.695 364.398C68.3181 356.601 66.7591 348.138 67.1361 339.649C67.5228 331.101 69.9786 322.893 74.965 316.909C80.6942 310.132 88.5112 305.448 97.1897 303.592C101.605 302.553 106.152 302.188 110.676 302.506C119.913 303.205 128.834 306.169 136.653 311.136C143.993 315.885 149.719 322.431 152.935 330.226C154.866 335.082 156.249 340.138 157.059 345.3C157.86 350.273 158.077 354.737 157.643 357.329C166.637 352.28 177.172 350.709 187.249 352.912C196.879 354.948 205.371 360.579 210.993 368.658C215.682 375.652 217.931 383.999 217.39 392.403C216.874 401.141 213.638 409.5 208.137 416.31H59.0155V416.323Z" fill="#353519"/>
<path d="M201.367 191.044L225.491 190.833L249.609 190.623C256.984 189.364 263.642 185.447 268.326 179.612C273.002 173.848 275.392 166.565 275.042 159.152C274.649 151.35 271.263 145.719 265.999 141.974C260.734 138.229 253.577 136.364 245.647 136.106C250.297 137.185 255.161 136.893 259.649 135.265C263.894 133.733 267.534 130.88 270.035 127.124C272.7 122.963 273.795 117.989 273.122 113.094C272.654 108.902 271.055 104.915 268.496 101.561C264.371 96.4326 258.414 93.5087 251.956 91.9483C245.497 90.388 238.55 90.1912 232.458 90.5169C232.329 90.5169 231.386 90.5576 230.477 90.6119C229.862 90.5921 229.248 90.6841 228.666 90.8832H228.476C228.381 90.8832 228.286 90.8832 228.279 90.8832C228.273 90.8832 231.895 89.8927 236.583 87.9321C241.271 85.9715 247.01 82.9323 251.182 78.4344C253.911 75.4782 255.983 71.9777 257.261 68.1633C258.557 64.1607 258.842 59.8053 257.261 55.7619C256.208 53.1758 254.532 50.8898 252.383 49.1067C251.071 47.9965 249.637 47.0384 248.109 46.2506C239.772 41.8138 229.887 42.6211 221.936 44.6496C213.985 46.678 207.954 49.948 207.337 50.4093C209.101 37.8316 208.015 26.5971 204.888 17.9474C201.76 9.29764 196.598 3.23266 190.207 0.98712C187.372 0.022959 184.346 -0.240077 181.388 0.220518C179.854 0.436417 178.352 0.839691 176.917 1.4213C170.676 4.03318 165.866 10.3153 163.22 18.9921C160.574 27.669 160.106 38.7406 162.541 50.9384C156.658 49.3754 150.62 48.4653 144.536 48.2248C135.765 47.9738 126.023 49.5206 120.751 56.3657C120.272 56.9797 119.839 57.6282 119.456 58.306C119.036 59.0434 118.668 59.8097 118.357 60.599C117.652 62.6999 117.253 64.8908 117.169 67.105C117.118 68.6728 117.263 70.241 117.604 71.7724C118.675 76.5213 121.674 80.8902 126.131 84.4587C130.588 88.0271 136.504 90.8154 143.417 92.525C137.311 91.9823 129.462 91.8941 122.325 93.6715C115.188 95.4489 108.757 99.0988 105.413 105.985C103.575 109.813 102.934 114.106 103.574 118.305C104.207 122.526 106.034 126.478 108.839 129.695C111.775 133.017 115.379 135.683 119.415 137.517C124.164 139.742 130.269 141.364 138.085 141.737L143.973 141.581L149.855 141.425C147.702 141.628 145.647 141.753 143.688 141.798C141.73 141.843 139.862 141.823 138.085 141.737L129.672 141.961L121.26 142.185C114.696 142.361 108.429 144.961 103.669 149.484C98.9281 153.969 96.1078 160.116 95.7995 166.634C95.6302 170.167 96.1917 173.696 97.4488 177.002C98.706 180.307 100.632 183.318 103.105 185.845C105.579 188.373 108.548 190.362 111.826 191.69C115.104 193.017 118.62 193.654 122.156 193.561L141.49 192.882L160.832 192.204L161.049 304.189L161.3 416.242H201.53C201.53 401.812 201.475 352.722 201.448 303.626C201.421 254.529 201.394 205.473 201.367 191.044Z" fill="#18B7A3" fill-opacity="0.5"/>
<path d="M201.203 190.888H189.86H178.517L189.86 208.411L201.203 225.934V208.411V190.888Z" fill="#353519"/>
<path d="M228.666 91.9078H218.13C217.86 91.9078 217.601 91.8006 217.41 91.6098C217.22 91.4189 217.112 91.1601 217.112 90.8902C217.113 90.6206 217.221 90.3622 217.411 90.1711C217.505 90.0763 217.617 90.0011 217.74 89.9498C217.864 89.8986 217.996 89.8723 218.13 89.8726H228.666C228.937 89.8732 229.198 89.9804 229.392 90.1711C229.58 90.3629 229.685 90.6214 229.683 90.8902C229.685 91.0234 229.66 91.1556 229.61 91.2791C229.56 91.4025 229.485 91.5148 229.392 91.6093C229.198 91.8 228.937 91.9072 228.666 91.9078Z" fill="#666538"/>
<path d="M166.129 55.4228C166.002 55.4234 165.875 55.4004 165.756 55.3549C165.633 55.303 165.521 55.2295 165.424 55.1379L163.64 53.4147L161.855 51.6915C161.67 51.5127 161.558 51.2705 161.543 51.0131C161.54 50.8792 161.563 50.7459 161.612 50.6212C161.661 50.4965 161.734 50.3829 161.828 50.2872C162.019 50.0967 162.278 49.9896 162.547 49.9896C162.817 49.9896 163.076 50.0967 163.267 50.2872L165.051 52.0104L166.842 53.7335C167.025 53.9131 167.135 54.1554 167.147 54.412C167.152 54.546 167.129 54.6795 167.08 54.8044C167.031 54.9292 166.957 55.0427 166.862 55.1379C166.769 55.242 166.653 55.3233 166.523 55.3753C166.396 55.4148 166.262 55.4309 166.129 55.4228Z" fill="#666538"/>
<path d="M148.172 141.405L142.284 141.561L136.395 141.717C138.172 141.803 140.043 141.823 142.005 141.778C143.968 141.732 146.024 141.608 148.172 141.405Z" fill="#18B7A3" fill-opacity="0.5"/>
<path d="M146.002 142.578H128.302C128.032 142.578 127.773 142.471 127.582 142.28C127.391 142.089 127.284 141.83 127.284 141.561C127.284 141.427 127.31 141.295 127.361 141.171C127.413 141.048 127.488 140.936 127.583 140.841C127.676 140.746 127.788 140.67 127.912 140.619C128.035 140.567 128.168 140.542 128.302 140.543H146.002C146.135 140.542 146.268 140.567 146.392 140.619C146.515 140.67 146.627 140.746 146.721 140.841C146.815 140.936 146.891 141.048 146.942 141.171C146.993 141.295 147.019 141.427 147.019 141.561C147.019 141.83 146.912 142.089 146.721 142.28C146.53 142.471 146.271 142.578 146.002 142.578Z" fill="#666538"/>
<path d="M421.144 210.663L416.809 210.779L412.467 210.894C412.443 210.896 412.419 210.889 412.4 210.874C412.381 210.858 412.369 210.837 412.365 210.813C412.363 210.789 412.369 210.765 412.383 210.745C412.397 210.725 412.417 210.71 412.44 210.704C415.644 209.619 418.58 207.866 421.056 205.562C423.227 203.571 424.783 201 425.54 198.154C426.163 195.416 426.01 192.559 425.099 189.904C424.205 187.088 422.629 184.536 420.512 182.474C418.395 180.413 415.802 178.905 412.962 178.086C408.32 176.617 403.359 176.479 398.641 177.686C403.136 176.656 407.152 174.139 410.039 170.542C412.619 167.403 414.081 163.492 414.191 159.43C414.302 155.367 413.055 151.383 410.649 148.107C408.453 144.971 405.29 142.64 401.645 141.469C398 140.298 394.072 140.352 390.46 141.622C386.589 142.932 383.2 145.373 380.731 148.63C382.783 144.582 383.543 140.003 382.909 135.509C382.317 131.139 380.302 127.086 377.176 123.976C373.96 120.88 369.829 118.905 365.399 118.345C361.119 117.724 356.757 118.625 353.072 120.889C348.683 123.705 345.759 128.63 344.87 134.234C343.961 140.352 345.417 146.586 348.941 151.669C348.972 151.706 348.99 151.753 348.99 151.801C348.99 151.85 348.972 151.897 348.941 151.934C348.903 151.966 348.855 151.983 348.805 151.983C348.756 151.983 348.708 151.966 348.67 151.934C346.833 150.589 344.749 149.622 342.536 149.088C340.323 148.555 338.027 148.466 335.78 148.826C333.71 149.111 331.722 149.821 329.941 150.912C328.159 152.002 326.622 153.45 325.427 155.163C323.046 158.772 322.564 163.48 323.867 167.856C324.553 170.178 325.722 172.328 327.297 174.167C328.871 176.006 330.817 177.492 333.005 178.527C327.427 177.368 321.617 178.471 316.852 181.594C312.497 184.47 309.505 188.798 308.881 193.378C308.338 197.367 309.559 201.613 312.144 205.223C314.866 209.077 318.795 211.913 323.311 213.282L318.853 213.397L314.396 213.52C308.499 213.679 302.907 216.173 298.848 220.454C294.789 224.734 292.595 230.451 292.748 236.348C292.828 239.269 293.483 242.146 294.675 244.814C295.867 247.482 297.573 249.889 299.695 251.897C301.818 253.905 304.315 255.476 307.045 256.519C309.774 257.562 312.683 258.057 315.604 257.976L333.921 257.487L352.238 257.006C352.699 280.153 353.161 308.565 353.595 337.058C354.029 365.551 354.517 393.943 354.952 417.11L371.878 417.382L388.798 417.66C388.262 394.268 387.719 365.592 387.183 336.929C386.647 308.266 386.104 279.57 385.561 256.198L403.879 255.71L422.196 255.221C428.094 255.065 433.688 252.572 437.748 248.291C441.807 244.009 444 238.291 443.844 232.393C443.687 226.495 441.194 220.901 436.913 216.841C432.632 212.781 426.913 210.588 421.015 210.745L421.144 210.663Z" fill="#666538"/>
<path d="M340.651 179.429H332.958C332.733 179.429 332.517 179.34 332.358 179.181C332.199 179.022 332.11 178.806 332.11 178.581C332.109 178.47 332.131 178.36 332.174 178.257C332.217 178.155 332.281 178.062 332.361 177.984C332.438 177.904 332.531 177.841 332.633 177.798C332.736 177.754 332.846 177.733 332.958 177.733H340.651C340.762 177.734 340.872 177.756 340.974 177.799C341.077 177.842 341.17 177.905 341.248 177.984C341.328 178.062 341.391 178.155 341.434 178.257C341.477 178.36 341.499 178.47 341.499 178.581C341.499 178.694 341.477 178.805 341.434 178.908C341.391 179.012 341.328 179.106 341.248 179.185C341.088 179.341 340.874 179.428 340.651 179.429Z" fill="#353519"/>
<path d="M413.295 211.993H389.293C389.068 211.993 388.852 211.904 388.693 211.745C388.534 211.586 388.445 211.37 388.445 211.145C388.443 211.033 388.464 210.922 388.506 210.818C388.548 210.715 388.61 210.621 388.689 210.541C388.768 210.462 388.863 210.4 388.966 210.358C389.07 210.316 389.181 210.295 389.293 210.297H413.295C413.518 210.298 413.732 210.386 413.892 210.541C413.972 210.62 414.035 210.714 414.078 210.818C414.121 210.922 414.143 211.033 414.143 211.145C414.144 211.256 414.122 211.367 414.078 211.469C414.035 211.572 413.972 211.665 413.892 211.742C413.814 211.821 413.721 211.884 413.619 211.927C413.516 211.97 413.406 211.993 413.295 211.993Z" fill="#353519"/>
<path d="M496.61 215.154C496.434 217.603 495.973 224.333 496.013 232.793C496.054 241.253 496.597 251.463 498.415 260.859C498.869 263.199 499.365 265.757 500.084 268.613C500.896 271.838 501.904 275.009 503.103 278.111C504.1 280.709 504.812 282.242 505.64 283.986C506.468 285.729 507.411 287.704 508.869 291.177C510.328 294.65 511.461 297.744 512.377 300.492C513.293 303.239 513.978 305.586 514.473 307.405C515.332 310.58 515.965 313.813 516.366 317.079C516.786 320.369 517.044 323.808 517.166 327.601C517.434 335.381 517.182 343.171 516.413 350.918C515.667 358.767 514.5 366.894 513.109 375.958C512.282 381.385 511.318 387.403 510.219 394.037C509.12 400.672 507.879 407.891 506.488 415.618L501.678 415.679L496.875 415.74C498.571 408.142 500.566 398.678 502.519 388C504.473 377.321 506.386 365.436 507.947 352.973C508.667 347.665 509.12 342.324 509.303 336.97C509.478 330.59 509.035 324.208 507.981 317.913C507.268 313.734 506.325 309.826 505.464 306.679C504.602 303.531 503.822 301.163 503.428 300.044C502.056 295.966 500.471 291.962 498.68 288.049C497.282 284.976 496.183 282.907 495.769 282.086C493.632 277.9 491.502 271.422 489.989 260.94C488.476 250.459 487.581 235.954 487.954 215.717L492.309 215.433L496.61 215.154Z" fill="#F4ECE5"/>
<path d="M525.585 215.365L493.347 216.627L461.102 217.895C460.851 217.902 460.604 217.835 460.389 217.704C460.175 217.573 460.003 217.382 459.895 217.156C459.768 216.92 459.701 216.657 459.701 216.389C459.701 216.121 459.768 215.858 459.895 215.623L467.086 202.516L474.27 189.416C475.919 186.359 478.298 183.758 481.197 181.844C483.976 180.02 487.197 178.981 490.518 178.839C493.571 178.736 496.602 179.393 499.338 180.752C502.187 182.18 504.669 184.246 506.59 186.79L516.549 199.856L526.508 212.916C526.675 213.135 526.782 213.395 526.819 213.668C526.856 213.942 526.821 214.22 526.718 214.476C526.637 214.719 526.486 214.932 526.285 215.09C526.083 215.248 525.84 215.344 525.585 215.365Z" fill="#F98638"/>
<path d="M506.183 201.695C506.048 202.18 505.803 202.627 505.466 203.002C505.13 203.376 504.711 203.667 504.243 203.852C503.146 204.314 501.928 204.402 500.776 204.103C499.615 203.839 498.572 203.203 497.805 202.292C497.461 201.92 497.215 201.47 497.087 200.98C496.96 200.49 496.956 199.976 497.076 199.485C497.195 198.993 497.435 198.539 497.773 198.162C498.111 197.785 498.536 197.498 499.012 197.326C500.115 196.888 501.326 196.802 502.479 197.082C503.633 197.361 504.671 197.992 505.45 198.886C505.78 199.266 506.018 199.718 506.145 200.205C506.272 200.692 506.285 201.202 506.183 201.695Z" fill="#AD4D4D"/>
<path d="M511.773 208.207C511.692 208.51 511.543 208.789 511.337 209.024C511.132 209.26 510.874 209.444 510.585 209.564C509.911 209.832 509.171 209.884 508.466 209.713C507.761 209.541 507.127 209.155 506.651 208.608C506.451 208.374 506.308 208.098 506.23 207.801C506.152 207.504 506.143 207.193 506.203 206.891C506.288 206.595 506.439 206.323 506.644 206.093C506.85 205.864 507.105 205.685 507.39 205.568C508.064 205.3 508.805 205.249 509.51 205.42C510.215 205.591 510.849 205.977 511.325 206.525C511.519 206.755 511.66 207.025 511.738 207.316C511.815 207.607 511.827 207.911 511.773 208.207Z" fill="#AD4D4D"/>
<path d="M309.077 130.516C308.806 134.173 308.128 144.2 308.189 156.818C308.25 169.436 309.057 184.633 311.764 198.662C312.442 202.143 313.175 205.962 314.254 210.195C315.464 215.013 316.966 219.752 318.752 224.388C320.237 228.268 321.302 230.548 322.53 233.153C323.758 235.758 325.169 238.695 327.347 243.872C329.525 249.048 331.207 253.647 332.564 257.738C333.921 261.829 334.945 265.33 335.691 268.05C335.691 268.05 336.526 271.293 337.442 276.666C338.66 283.749 339.422 290.903 339.721 298.083C340.115 308.198 339.294 323.978 337.008 344.12C334.721 364.262 330.956 388.773 325.475 416.35H312.286C312.965 412.958 313.847 408.888 314.79 404.139C315.733 399.39 316.764 394.038 317.842 388.169C319.878 376.942 321.397 368.109 322.639 359.968C323.88 351.827 324.857 344.364 325.902 335.952C326.965 328.039 327.631 320.079 327.897 312.099C328.162 302.589 327.499 293.075 325.916 283.694C324.864 277.453 323.453 271.632 322.171 266.944C320.889 262.256 319.722 258.715 319.165 257.046C317.125 250.971 314.775 245.005 312.123 239.17C310.034 234.591 308.399 231.504 307.775 230.283C304.593 224.042 301.418 214.388 299.166 198.757C296.914 183.127 295.577 161.519 296.072 131.344L302.578 130.93L309.077 130.516Z" fill="#F4ECE5"/>
<path d="M352.238 130.794L304.166 132.68L256.121 134.586C255.746 134.593 255.377 134.491 255.058 134.294C254.74 134.097 254.484 133.812 254.323 133.474C254.134 133.122 254.035 132.729 254.035 132.331C254.035 131.932 254.134 131.539 254.323 131.187L265.035 111.656L275.747 92.1246C278.208 87.5715 281.755 83.6962 286.073 80.8426C290.217 78.1216 295.02 76.5743 299.973 76.3651C304.54 76.2002 309.076 77.1797 313.168 79.2144C317.419 81.3412 321.118 84.4251 323.975 88.2237L338.826 107.687L353.683 127.124C353.931 127.453 354.09 127.841 354.146 128.249C354.202 128.658 354.152 129.074 354.002 129.457C353.876 129.831 353.64 130.159 353.326 130.397C353.011 130.636 352.632 130.774 352.238 130.794Z" fill="#F98638"/>
<path d="M323.338 110.421C323.139 111.144 322.776 111.811 322.275 112.37C321.775 112.928 321.151 113.362 320.454 113.637C318.811 114.296 317.003 114.427 315.282 114.01C313.562 113.592 312.014 112.649 310.855 111.31C310.343 110.757 309.976 110.085 309.787 109.355C309.598 108.625 309.592 107.86 309.77 107.128C309.948 106.395 310.304 105.718 310.807 105.156C311.31 104.594 311.944 104.166 312.653 103.909C314.288 103.22 316.106 103.092 317.822 103.542C319.556 103.939 321.111 104.892 322.252 106.256C322.741 106.82 323.094 107.489 323.282 108.212C323.47 108.934 323.489 109.69 323.338 110.421Z" fill="#AD4D4D"/>
<path d="M331.668 120.13C331.547 120.572 331.325 120.98 331.019 121.322C330.713 121.663 330.331 121.929 329.904 122.097C328.9 122.498 327.797 122.576 326.746 122.321C325.696 122.065 324.751 121.489 324.043 120.672C323.73 120.334 323.506 119.923 323.39 119.477C323.274 119.031 323.27 118.563 323.379 118.115C323.488 117.667 323.706 117.253 324.013 116.91C324.321 116.567 324.709 116.305 325.142 116.147C326.146 115.746 327.25 115.667 328.3 115.922C329.351 116.178 330.296 116.754 331.003 117.572C331.305 117.917 331.523 118.328 331.638 118.772C331.753 119.216 331.764 119.681 331.668 120.13Z" fill="#AD4D4D"/>
<path d="M292.646 416.323C286.621 413.436 281.868 408.433 279.295 402.267C276.806 396.458 276.658 389.912 278.881 383.997C280.821 379.12 284.295 375.008 288.779 372.281C293.457 369.403 298.898 368.012 304.383 368.292C301.258 361.083 299.818 353.258 300.17 345.409C300.529 337.506 302.795 329.914 307.402 324.378C312.701 318.109 319.931 313.776 327.958 312.059C332.043 311.107 336.248 310.768 340.434 311.054C348.973 311.705 357.22 314.447 364.449 319.039C371.144 323.259 376.402 329.409 379.53 336.678C381.318 341.168 382.597 345.844 383.343 350.619C384.089 355.212 384.286 359.344 383.879 361.738C392.201 357.079 401.942 355.631 411.26 357.668C419.56 359.317 426.973 363.938 432.109 370.664C437.245 377.39 439.751 385.759 439.156 394.2C438.677 402.285 435.683 410.017 430.594 416.317H292.646V416.323Z" fill="#353519"/>
<path d="M272.043 308.653C270.454 315.202 269.782 321.939 270.048 328.673C270.298 335.433 271.709 342.099 274.221 348.381C275.921 352.549 278.163 356.474 280.889 360.056C283.61 363.644 286.836 366.818 290.469 369.479C294.312 372.321 298.789 374.184 303.514 374.906C307.992 375.585 312.666 375.381 317.761 374.778C321.119 374.292 324.535 374.384 327.862 375.049C331.19 375.76 334.184 377.563 336.37 380.171C338.51 382.807 340.018 385.898 340.779 389.207C341.564 392.508 341.964 395.889 341.973 399.282L342.157 407.816L342.34 416.351H358.676C358.676 416.351 358.818 413.637 358.845 409.817C358.905 405.446 358.721 401.075 358.296 396.724C357.915 393.056 357.234 389.426 356.261 385.87C354.973 381.236 353.024 376.813 350.474 372.736C348.831 370.088 346.837 367.675 344.545 365.565C342.261 363.445 339.623 361.743 336.75 360.538C333.464 359.294 329.97 358.693 326.458 358.767C322.937 358.767 319.376 359.086 315.909 359.222C312.368 359.375 308.827 358.942 305.427 357.939C302.017 356.943 298.861 355.224 296.174 352.899C287.789 345.572 285.754 335.131 286.432 324.297C287.11 313.463 290.631 302.215 293.257 293.206C294.546 288.782 295.97 283.945 297.605 278.749C299.24 273.552 300.997 267.989 302.965 262.1L295.258 259.319L287.545 256.537C285.55 262.109 283.608 267.865 281.717 273.803C279.826 279.741 278.017 285.863 276.29 292.168C275.516 294.963 274.775 297.735 274.065 300.485C273.354 303.235 272.681 305.957 272.043 308.653Z" fill="#18B7A3" fill-opacity="0.5"/>
<path d="M288.115 312.703L289.139 308.497L290.17 304.284C290.231 304.026 290.285 303.823 290.333 303.646C290.38 303.47 290.421 303.307 290.455 303.158C290.55 302.792 290.672 302.303 290.862 301.604C291.052 300.906 291.303 300.01 291.649 298.823C293.006 294.074 293.956 291.231 294.729 288.83C295.502 286.428 296.086 284.468 296.825 281.469C297.266 279.603 297.409 278.755 297.578 277.731C297.748 276.707 297.952 275.472 298.521 272.806C299.146 269.868 299.783 267.209 300.373 264.902C300.964 262.596 301.527 260.628 301.981 259.068L292.633 257.535L283.284 256.022C282.647 258.736 281.819 262.229 280.944 265.947C280.069 269.665 279.153 273.572 278.339 277.046C276.405 285.275 274.947 291.503 273.793 297.052C272.64 302.602 271.758 307.479 271.046 313.002C270.856 314.453 270.693 315.776 270.557 316.93C270.422 318.083 270.313 319.08 270.232 319.867L283.549 314.548L288.115 312.723V312.703Z" fill="#353519"/>
<path d="M287.715 348.53C285.45 344.019 281.7 340.426 277.098 338.354C273.794 336.786 270.161 336.039 266.508 336.176C266.508 335.64 266.555 335.111 266.542 334.582C266.519 332.125 265.99 329.699 264.988 327.456C263.986 325.213 262.531 323.201 260.716 321.546C258.901 319.89 256.764 318.627 254.438 317.835C252.112 317.043 249.648 316.739 247.2 316.943C245.903 317.038 244.618 317.265 243.367 317.621C243.096 313.782 241.503 310.156 238.858 307.361C236.213 304.565 232.681 302.773 228.863 302.289C226.989 302.047 225.084 302.209 223.278 302.764C221.472 303.32 219.806 304.256 218.391 305.509C216.977 306.763 215.848 308.305 215.08 310.031C214.312 311.758 213.922 313.629 213.938 315.518C213.954 319.555 215.439 323.447 218.116 326.468C220.793 329.49 224.478 331.433 228.483 331.936C228.747 331.936 229.019 331.97 229.29 331.983C228.833 333.716 228.619 335.504 228.652 337.295C228.675 339.752 229.204 342.178 230.206 344.421C231.208 346.664 232.663 348.676 234.478 350.331C236.293 351.987 238.43 353.25 240.756 354.042C243.082 354.834 245.546 355.137 247.994 354.934C249.262 354.832 250.516 354.605 251.739 354.256C252.023 355.328 252.409 356.371 252.892 357.369C255.216 361.83 258.947 365.4 263.506 367.525C268.065 369.649 273.198 370.21 278.108 369.12C282.572 367.98 286.249 365.266 288.142 361.23C290.035 357.193 289.716 352.675 287.715 348.53Z" fill="#18B7A3" fill-opacity="0.5"/>
<path d="M278.291 356.427C278.226 356.434 278.16 356.434 278.095 356.427C278.026 356.412 277.959 356.387 277.898 356.352C274.506 354.554 271.182 352.655 267.891 350.674C264.601 348.693 261.372 346.603 258.211 344.5C250.622 339.369 243.358 333.773 236.461 327.743C229.512 321.679 222.942 315.195 216.787 308.327C216.711 308.245 216.653 308.149 216.616 308.044C216.578 307.939 216.562 307.827 216.569 307.716C216.575 307.605 216.604 307.496 216.653 307.396C216.702 307.296 216.771 307.206 216.855 307.133C216.937 307.058 217.033 307 217.138 306.963C217.243 306.925 217.354 306.91 217.465 306.916C217.688 306.93 217.898 307.029 218.049 307.194C224.162 314.009 230.687 320.444 237.587 326.461C244.431 332.444 251.641 337.995 259.174 343.082C262.308 345.199 265.51 347.234 268.78 349.188C272.043 351.155 275.361 353.035 278.705 354.819C278.804 354.871 278.891 354.942 278.962 355.028C279.033 355.114 279.086 355.212 279.119 355.319C279.152 355.425 279.163 355.537 279.153 355.648C279.142 355.759 279.11 355.867 279.058 355.965C278.983 356.102 278.873 356.217 278.739 356.298C278.606 356.384 278.45 356.429 278.291 356.427Z" fill="#666538"/>
<path d="M327.815 206.715C344.917 189.3 348.581 176.064 344.198 171.79C339.816 167.516 327.387 172.204 312.313 190.616C318.812 166.872 314.966 153.928 308.555 153.643C302.144 153.358 293.155 165.698 289.383 192.496C282.728 165.936 272.334 154.647 266.005 155.916C259.675 157.184 257.416 171.01 267.036 194.687C249.614 177.584 236.385 173.921 232.111 178.303C227.837 182.686 232.518 195.114 250.937 210.188C227.193 203.689 214.249 207.536 213.957 213.954C213.665 220.371 226.019 229.347 252.817 233.126C226.25 239.774 214.961 250.174 216.23 256.497C217.498 262.82 231.324 265.085 255.008 255.472C237.898 272.887 234.235 286.116 238.617 290.39C243 294.664 255.435 289.983 270.503 271.571C264.01 295.315 267.85 308.259 274.268 308.544C280.686 308.829 289.661 296.482 293.44 269.685C300.088 296.252 310.488 307.54 316.818 306.272C323.147 305.003 325.406 291.177 315.787 267.494C333.201 284.603 346.437 288.267 350.711 283.884C354.985 279.502 350.304 267.066 331.885 251.999C355.63 258.498 368.574 254.651 368.865 248.234C369.157 241.816 356.803 232.841 330.006 229.062C356.566 222.413 367.861 212.013 366.593 205.691C365.324 199.368 351.478 197.095 327.815 206.715Z" fill="#F4ECE5"/>
<path d="M305.834 231.429C305.928 235.18 304.719 238.847 302.413 241.806C300.107 244.766 296.846 246.834 293.187 247.66C289.527 248.485 285.694 248.016 282.341 246.333C278.988 244.649 276.322 241.856 274.798 238.428C273.273 235 272.984 231.15 273.979 227.532C274.975 223.915 277.193 220.755 280.257 218.589C283.321 216.424 287.041 215.388 290.783 215.657C294.525 215.926 298.058 217.484 300.78 220.066C302.331 221.532 303.577 223.292 304.444 225.242C305.312 227.192 305.784 229.295 305.834 231.429V231.429Z" fill="#4D007B"/>
<path d="M453.633 177.489C453.728 182.876 453.525 187.726 453.199 191.953C452.874 196.179 452.412 199.775 451.992 202.665C450.399 213.282 448.124 223.785 445.18 234.109C442.304 244.55 438.919 255.486 435.269 268.566C432.04 280.146 429.462 289.4 427.311 298.253C425.16 307.106 423.451 315.579 421.952 325.6C421.239 330.348 420.384 336.583 419.625 344.032C418.865 351.481 418.214 360.151 417.901 369.751C417.617 378.475 417.65 386.745 417.901 394.506C418.152 402.267 418.648 409.512 419.258 416.215C416.694 416.154 414.075 416.127 411.389 416.14C408.702 416.154 405.961 416.194 403.139 416.289C400.665 416.371 398.239 416.479 395.86 416.615C393.481 416.751 391.156 416.916 388.886 417.11C387.529 417.219 387.583 406.14 388.051 394.621C388.52 383.102 389.368 371.148 389.49 369.52C390.365 357.743 391.525 346.284 393.14 334.921C394.754 323.558 396.817 312.181 399.489 300.634C401.104 293.674 402.793 286.722 404.557 279.78C406.321 272.837 408.216 265.94 410.242 259.088C415.873 239.998 420.045 228.431 422.956 218.703C425.961 209.195 427.694 199.331 428.112 189.368C428.471 182.279 428.39 174.864 428.159 168.27C427.928 161.675 427.535 155.902 427.277 152.076C426.599 142.497 425.73 133.725 424.733 125.923C423.736 118.121 422.644 111.283 421.633 105.571L433.254 103.637L444.875 101.711C446.173 113.321 447.397 123.578 448.545 132.483C449.678 141.377 450.709 148.901 451.571 155.02C451.883 157.232 452.358 160.258 452.779 164.029C453.199 167.801 453.538 172.265 453.633 177.489Z" fill="#18B7A3" fill-opacity="0.5"/>
<path d="M426.951 201.227C427.107 199.768 427.236 198.438 427.352 197.272C427.467 196.105 427.569 195.094 427.643 194.273C427.643 194.273 428.057 189.85 428.41 184.416C428.763 178.982 429.048 172.53 428.783 168.48C428.783 168.093 428.729 167.673 428.708 167.354C428.688 167.035 428.668 166.811 428.668 166.811C428.668 166.275 428.579 165.549 428.498 164.518C428.417 163.487 428.288 162.143 428.111 160.38C427.379 152.958 426.673 146.486 426.158 141.873C425.642 137.259 425.303 134.491 425.303 134.491C424.821 130.557 424.278 126.14 423.668 121.296C423.057 116.453 422.365 111.168 421.633 105.503L433.254 103.57L444.875 101.643C445.96 107.796 446.91 113.495 447.69 118.657C448.47 123.82 449.149 128.433 449.726 132.429C452.052 149.389 453.118 161.282 453.518 169.66C453.837 175.014 453.869 180.381 453.613 185.739C453.396 189.958 453.07 193.757 452.744 196.851C452.419 199.944 452.066 202.353 451.883 203.784C451.123 209.151 450.194 214.083 449.21 218.533C448.226 222.983 447.175 226.945 446.218 230.364C443.016 225.507 439.812 220.65 436.605 215.792L426.951 201.227Z" fill="#666538"/>
<path d="M549.655 248.078C548.647 245.378 547.082 242.92 545.063 240.864C543.043 238.808 540.614 237.2 537.932 236.144C532.459 234.019 526.42 233.854 520.839 235.678C515.259 237.503 510.483 241.203 507.322 246.151C505.901 244.77 504.344 243.536 502.675 242.467C499.539 240.415 496.013 239.033 492.318 238.405C488.623 237.777 484.839 237.918 481.201 238.819C477.563 239.72 474.15 241.362 471.175 243.641C468.2 245.92 465.727 248.788 463.911 252.067C463.51 252.745 463.144 253.491 462.805 254.231C457.999 251.391 452.579 249.75 447.005 249.448C438.735 248.939 431.076 251.232 425.384 255.337C419.692 259.441 415.968 265.377 415.554 272.148C415.14 278.918 418.125 285.261 423.274 290.03C428.423 294.8 435.75 297.995 444.027 298.497C452.303 298.999 459.956 296.713 465.647 292.602C467.02 291.615 468.294 290.5 469.453 289.271C470.851 290.609 472.376 291.809 474.005 292.853C477.141 294.904 480.667 296.288 484.361 296.916C488.056 297.544 491.84 297.403 495.478 296.503C499.116 295.603 502.529 293.962 505.504 291.684C508.479 289.405 510.953 286.537 512.77 283.26C514.101 280.887 515.099 278.341 515.734 275.696C516.108 275.872 516.481 276.035 516.861 276.191C522.597 278.428 528.951 278.501 534.737 276.395C540.522 274.288 545.343 270.148 548.298 264.746C549.681 262.218 550.516 259.428 550.75 256.556C550.984 253.684 550.611 250.796 549.655 248.078V248.078Z" fill="#18B7A3" fill-opacity="0.5"/>
<path d="M435.071 272.528H432.867C432.653 272.529 432.447 272.449 432.29 272.304C432.133 272.142 432.046 271.925 432.046 271.7C432.045 271.59 432.067 271.48 432.111 271.379C432.154 271.278 432.217 271.186 432.297 271.11C432.375 271.03 432.468 270.967 432.57 270.924C432.673 270.881 432.783 270.859 432.894 270.859C438.687 270.899 444.508 270.784 450.322 270.519C456.136 270.255 461.936 269.841 467.689 269.285C481.512 267.933 495.238 265.727 508.787 262.677C522.41 259.593 535.831 255.681 548.976 250.961C549.083 250.913 549.199 250.889 549.316 250.889C549.432 250.889 549.548 250.913 549.655 250.961C549.757 251.007 549.848 251.073 549.922 251.156C549.997 251.239 550.054 251.337 550.089 251.443C550.128 251.547 550.145 251.657 550.14 251.768C550.136 251.879 550.109 251.988 550.061 252.089C550.014 252.189 549.947 252.279 549.864 252.354C549.782 252.428 549.685 252.485 549.58 252.521C536.358 257.257 522.857 261.177 509.154 264.258C495.537 267.326 481.744 269.547 467.852 270.906C462.425 271.435 456.973 271.831 451.496 272.093C446.019 272.356 440.544 272.5 435.071 272.528Z" fill="#666538"/>
<path d="M376.613 138.908C373.57 143.342 371.944 148.595 371.95 153.973C371.956 159.352 373.593 164.601 376.646 169.029C379.699 173.456 384.024 176.853 389.048 178.771C394.073 180.688 399.561 181.036 404.787 179.769H404.821C405.795 185.066 408.357 189.943 412.167 193.752C415.976 197.56 420.854 200.12 426.152 201.093C431.45 202.066 436.919 201.405 441.833 199.199C446.747 196.992 450.874 193.343 453.667 188.737V188.737C458.1 191.783 463.353 193.412 468.732 193.408C474.111 193.404 479.362 191.767 483.79 188.714C488.218 185.661 491.616 181.336 493.533 176.311C495.45 171.285 495.797 165.796 494.527 160.57V160.536V160.502C499.825 159.527 504.702 156.966 508.51 153.156C512.319 149.347 514.879 144.469 515.852 139.171C516.825 133.873 516.164 128.404 513.957 123.49C511.751 118.576 508.102 114.449 503.496 111.656V111.656V111.622C506.517 107.192 508.127 101.951 508.114 96.588C508.101 91.2254 506.465 85.9923 503.421 81.5769C500.378 77.1615 496.069 73.7705 491.063 71.8499C486.056 69.9292 480.585 69.5687 475.369 70.8159H475.301C474.324 65.5203 471.76 60.6466 467.951 56.8406C464.141 53.0346 459.265 50.4758 453.968 49.5033C448.672 48.5308 443.205 49.1904 438.291 51.3949C433.378 53.5993 429.251 57.2444 426.456 61.8473V61.8473C422.022 58.8027 416.769 57.1756 411.39 57.1809C406.012 57.1863 400.762 58.8239 396.334 61.8773C391.907 64.9308 388.51 69.2561 386.594 74.2815C384.678 79.3068 384.332 84.7955 385.602 90.0217V90.0895C380.306 91.0671 375.433 93.6305 371.627 97.4401C367.82 101.25 365.262 106.126 364.289 111.422C363.317 116.719 363.976 122.186 366.181 127.099C368.385 132.012 372.03 136.14 376.633 138.935L376.613 138.908Z" fill="#4D007B"/>
<path d="M410.765 125.984C410.608 132.704 412.787 139.27 416.929 144.564C421.071 149.858 426.92 153.552 433.48 155.017C440.041 156.482 446.906 155.627 452.906 152.599C458.907 149.57 463.672 144.554 466.389 138.406C469.107 132.258 469.608 125.358 467.809 118.882C466.01 112.405 462.021 106.753 456.522 102.888C451.022 99.0225 444.353 97.1834 437.65 97.6837C430.947 98.1841 424.625 100.993 419.76 105.632C416.994 108.264 414.775 111.417 413.231 114.91C411.687 118.403 410.849 122.166 410.765 125.984Z" fill="#F4ECE5"/>
<path d="M539.73 368.441C542.776 368.133 545.729 367.212 548.41 365.733C551.092 364.255 553.446 362.25 555.333 359.839C557.093 357.704 558.403 355.235 559.185 352.581C559.968 349.927 560.206 347.143 559.886 344.395C559.566 341.647 558.695 338.991 557.324 336.588C555.953 334.185 554.11 332.083 551.907 330.409C547.587 327.008 542.183 325.28 536.691 325.545C540.036 324.403 543.108 322.579 545.711 320.187C548.314 317.795 550.392 314.889 551.812 311.651C553.199 308.745 553.958 305.58 554.04 302.361C554.122 299.142 553.526 295.942 552.289 292.969C551.053 289.995 549.204 287.316 546.864 285.104C544.524 282.893 541.744 281.199 538.706 280.133C532.606 277.832 525.859 277.943 519.839 280.445C521.35 278.477 522.595 276.319 523.543 274.027C525.51 269.425 526.127 264.358 525.322 259.419C524.518 254.479 522.324 249.87 518.998 246.131C517.089 243.886 514.86 241.933 512.383 240.337C507.363 238.031 501.756 237.32 496.319 238.302C490.6 239.275 485.426 242.283 481.752 246.772C478.078 251.26 476.15 256.926 476.326 262.725C476.404 269.272 478.856 275.568 483.225 280.445C479.94 279.299 476.455 278.841 472.985 279.099C469.515 279.357 466.136 280.325 463.056 281.944C457.235 284.99 452.826 290.18 451.34 296.279C449.942 302.045 451.245 308.266 454.562 313.456C458.065 318.945 463.541 322.879 469.861 324.446C464.17 323.837 458.43 324.998 453.423 327.77C448.836 330.265 445.287 334.31 443.409 339.181C442.222 342.467 441.825 345.985 442.249 349.452C442.698 353.359 444.278 357.049 446.795 360.07C449.412 363.158 452.884 365.402 456.774 366.521C458.849 367.152 461.003 367.483 463.171 367.505C457.738 368.77 452.893 371.837 449.424 376.206C445.956 380.575 444.068 385.989 444.067 391.568C444.067 398.122 446.67 404.407 451.304 409.041C455.937 413.676 462.222 416.281 468.775 416.283H531.053C537.604 416.281 543.887 413.678 548.52 409.046C553.153 404.415 555.757 398.133 555.761 391.582C555.772 386.481 554.198 381.502 551.256 377.335C548.387 373.287 544.373 370.19 539.73 368.441Z" fill="#666538"/>
<path d="M475.423 368.366H463.171C462.946 368.366 462.73 368.277 462.571 368.118C462.412 367.959 462.323 367.743 462.323 367.518C462.323 367.407 462.345 367.297 462.388 367.194C462.431 367.092 462.494 366.999 462.574 366.921C462.651 366.841 462.744 366.778 462.847 366.735C462.949 366.691 463.06 366.67 463.171 366.67H475.423C475.647 366.672 475.862 366.762 476.021 366.921C476.179 367.079 476.269 367.294 476.271 367.518C476.271 367.743 476.182 367.959 476.023 368.118C475.864 368.277 475.648 368.366 475.423 368.366Z" fill="#353519"/>
<path d="M509.927 286.727C509.777 286.726 509.63 286.686 509.5 286.611C509.367 286.535 509.258 286.422 509.188 286.286C509.132 286.189 509.097 286.082 509.085 285.971C509.072 285.86 509.081 285.748 509.113 285.641C509.177 285.425 509.323 285.242 509.52 285.132L514.479 282.419L519.432 279.705C519.529 279.65 519.636 279.615 519.746 279.603C519.857 279.59 519.969 279.599 520.076 279.63C520.293 279.694 520.475 279.84 520.585 280.038C520.692 280.236 520.716 280.468 520.652 280.684C520.589 280.9 520.443 281.082 520.246 281.191L515.293 283.904L510.334 286.618C510.273 286.653 510.207 286.678 510.137 286.693C510.069 286.714 509.999 286.725 509.927 286.727Z" fill="#353519"/>
<path d="M478.069 325.308H468.694C468.469 325.308 468.253 325.218 468.094 325.059C467.935 324.9 467.846 324.685 467.846 324.46C467.846 324.235 467.935 324.019 468.094 323.86C468.253 323.701 468.469 323.612 468.694 323.612H478.069C478.294 323.612 478.51 323.701 478.669 323.86C478.828 324.019 478.917 324.235 478.917 324.46C478.917 324.685 478.828 324.9 478.669 325.059C478.51 325.218 478.294 325.308 478.069 325.308Z" fill="#353519"/>
<path d="M139.448 153.433C139.453 158.103 137.838 162.631 134.879 166.244C131.919 169.857 127.798 172.332 123.218 173.247C118.638 174.161 113.883 173.459 109.762 171.26C105.642 169.061 102.412 165.501 100.622 161.187C98.8331 156.873 98.5954 152.072 99.9498 147.602C101.304 143.132 104.167 139.271 108.05 136.675C111.933 134.08 116.596 132.911 121.244 133.369C125.892 133.827 130.237 135.883 133.539 139.186C135.412 141.055 136.899 143.276 137.913 145.721C138.927 148.165 139.448 150.786 139.448 153.433Z" fill="#353519"/>
<path d="M122.094 171.587C122.099 176.256 120.484 180.781 117.525 184.393C114.567 188.004 110.447 190.478 105.869 191.392C101.29 192.306 96.5367 191.604 92.418 189.406C88.2993 187.207 85.0705 183.649 83.2818 179.336C81.4932 175.024 81.2555 170.224 82.6092 165.756C83.9629 161.288 86.8243 157.428 90.7055 154.833C94.5868 152.239 99.2478 151.07 103.894 151.527C108.54 151.985 112.884 154.039 116.185 157.34C118.059 159.21 119.545 161.43 120.559 163.875C121.573 166.32 122.095 168.94 122.094 171.587Z" fill="#353519"/>
<path d="M106.721 162.211C105.579 162.181 104.466 161.844 103.499 161.234C102.511 160.639 101.641 159.867 100.934 158.955C100.235 158.038 99.6753 157.023 99.2722 155.943C98.8712 154.852 98.6246 153.71 98.5395 152.551H98.4446H98.3428C98.2335 152.571 98.1212 152.569 98.0127 152.544C97.9043 152.52 97.8019 152.474 97.7119 152.408C97.5726 152.314 97.4648 152.18 97.4023 152.024C97.3398 151.868 97.3255 151.697 97.3613 151.533C97.3971 151.368 97.4813 151.218 97.603 151.102C97.7248 150.987 97.8785 150.91 98.0443 150.882L98.3021 150.834L98.5667 150.794C98.5667 150.624 98.5667 150.461 98.621 150.292C98.6752 150.122 98.6752 149.966 98.7091 149.803C98.7547 149.583 98.8835 149.388 99.0687 149.261C99.1615 149.199 99.2657 149.156 99.3752 149.135C99.4847 149.114 99.5973 149.115 99.7064 149.138C99.8166 149.158 99.9216 149.2 100.015 149.262C100.108 149.324 100.188 149.404 100.249 149.498C100.372 149.686 100.416 149.915 100.371 150.136L100.331 150.353C100.331 150.427 100.331 150.502 100.297 150.577C102.026 150.403 103.773 150.515 105.466 150.909C107.197 151.31 108.762 152.234 109.95 153.555C110.567 154.26 111.017 155.094 111.267 155.997C111.509 156.847 111.525 157.745 111.314 158.602C111.125 159.313 110.777 159.972 110.296 160.529C109.816 161.086 109.215 161.527 108.539 161.818C108.249 161.941 107.947 162.035 107.637 162.096C107.336 162.161 107.029 162.2 106.721 162.211ZM100.229 152.313C100.285 153.328 100.491 154.33 100.839 155.285C101.182 156.23 101.667 157.118 102.278 157.917C102.961 158.813 103.838 159.543 104.842 160.054C105.302 160.308 105.812 160.461 106.336 160.5C106.861 160.54 107.388 160.467 107.881 160.285C108.316 160.095 108.703 159.81 109.014 159.451C109.324 159.092 109.549 158.667 109.672 158.209C109.813 157.618 109.795 156.999 109.618 156.418C109.437 155.782 109.115 155.195 108.675 154.701C107.651 153.581 106.296 152.816 104.808 152.517C103.302 152.209 101.756 152.14 100.229 152.313Z" fill="#666538"/>
<path d="M175.173 284.379L175.329 295.75L175.478 307.126C175.506 309.269 175.423 311.411 175.227 313.544C175.026 315.676 174.702 317.793 174.257 319.887C173.872 321.891 173.271 323.847 172.466 325.722C171.719 327.302 170.817 328.347 169.752 328.327C169.357 329.516 168.683 330.594 167.785 331.468C167.016 332.233 166.008 332.712 164.929 332.825C164.642 332.857 164.353 332.857 164.067 332.825C163.67 332.765 163.283 332.656 162.914 332.499C162.612 332.966 162.259 333.399 161.862 333.788C161.355 334.292 160.759 334.699 160.105 334.989C159.783 335.142 159.44 335.247 159.088 335.301C158.903 335.325 158.716 335.325 158.531 335.301C158.131 335.241 157.752 335.085 157.425 334.846C157.212 334.697 157.019 334.521 156.849 334.324C156.279 333.707 156.055 332.818 156.109 331.176C156.164 329.534 156.482 327.106 157.012 323.469C157.059 323.164 157.134 322.635 157.242 321.936C157.351 321.237 157.493 320.362 157.663 319.358C157.717 319.033 157.758 318.802 157.792 318.626C157.826 318.449 157.846 318.334 157.86 318.218C158.034 317.059 158.134 315.89 158.158 314.718C158.183 313.781 158.16 312.844 158.09 311.909C158.016 310.871 157.927 309.833 157.785 308.802C157.648 307.77 157.435 306.75 157.147 305.749C156.987 305.151 156.759 304.573 156.469 304.026C156.188 303.466 155.702 303.036 155.112 302.825C154.817 302.74 154.507 302.719 154.203 302.762C153.899 302.805 153.608 302.913 153.348 303.076C152.815 303.388 152.384 303.847 152.107 304.399C151.825 304.999 151.642 305.641 151.564 306.299C151.469 306.977 151.428 307.656 151.367 308.28C151.272 309.23 151.164 310.179 151.001 311.116C150.833 312.058 150.606 312.989 150.322 313.904C149.979 315.274 149.34 316.552 148.45 317.649C148.14 318.037 147.707 318.308 147.222 318.415C147.078 318.428 146.932 318.428 146.788 318.415C146.556 318.41 146.326 318.364 146.11 318.28C145.735 318.093 145.405 317.829 145.14 317.505C144.876 317.181 144.684 316.804 144.576 316.4C144.2 315.259 144.028 314.06 144.067 312.859C144.067 312.289 144.067 311.719 144.067 311.156C144.067 310.593 144.067 310.016 144.067 309.447L143.864 296.876L143.667 284.298L159.406 284.332L175.173 284.379Z" fill="#FFAA9F"/>
<path d="M162.914 333.306C162.858 333.313 162.801 333.313 162.745 333.306C162.683 333.298 162.624 333.279 162.568 333.252C162.467 333.206 162.376 333.14 162.3 333.059C162.224 332.977 162.166 332.882 162.127 332.777C162.084 332.675 162.061 332.566 162.061 332.455C162.061 332.344 162.084 332.234 162.127 332.133C163.308 329.507 164.257 325.057 164.922 321.244C165.587 317.431 165.96 314.25 165.967 314.189C165.992 313.967 166.104 313.764 166.279 313.626C166.456 313.488 166.679 313.422 166.903 313.442C167.015 313.455 167.122 313.49 167.22 313.545C167.318 313.6 167.404 313.673 167.473 313.761C167.543 313.848 167.594 313.948 167.624 314.056C167.655 314.163 167.663 314.275 167.649 314.385C167.649 314.65 167.242 317.886 166.564 321.746C165.886 325.606 164.909 330.084 163.674 332.825C163.608 332.977 163.497 333.105 163.355 333.191C163.222 333.27 163.069 333.31 162.914 333.306Z" fill="#AD4D4D"/>
<path d="M169.745 329.175H169.637H169.528C169.311 329.117 169.126 328.976 169.013 328.781C168.899 328.587 168.865 328.356 168.918 328.137C169.189 327.099 169.44 326.047 169.671 324.989C169.901 323.931 170.118 322.879 170.308 321.828C170.553 320.516 170.765 319.195 170.946 317.866C171.129 316.509 171.278 315.206 171.407 313.877C171.416 313.766 171.447 313.659 171.498 313.561C171.549 313.463 171.62 313.376 171.706 313.307C171.881 313.163 172.104 313.092 172.33 313.11C172.553 313.134 172.757 313.244 172.9 313.416C173.043 313.588 173.114 313.809 173.097 314.033C172.965 315.389 172.809 316.746 172.629 318.103C172.439 319.46 172.221 320.817 171.95 322.174C171.753 323.245 171.536 324.324 171.272 325.396C171.007 326.468 170.783 327.54 170.505 328.605C170.459 328.789 170.351 328.952 170.2 329.066C170.061 329.144 169.904 329.181 169.745 329.175Z" fill="#AD4D4D"/>
<path d="M99.0893 241.151L81.6406 306.529L64.1919 371.908H140.486C143.905 350.117 147.327 328.324 150.75 306.529C154.174 284.734 157.598 262.942 161.021 241.151H99.0893Z" fill="#666538"/>
<path d="M137.026 160.759C134.814 160.326 132.569 160.085 130.316 160.04C127.434 159.985 124.555 160.274 121.741 160.902C114.991 162.476 108.805 165.877 103.858 170.732C100.947 173.524 98.4239 176.693 96.3549 180.155L88.4718 193.31L80.5819 206.498C78.6944 209.639 77.1219 212.959 75.8873 216.409C74.6567 219.856 73.797 223.425 73.3229 227.054C72.7462 231.511 72.7123 236.389 73.9606 240.873C75.1699 245.615 78.1483 249.715 82.2847 252.331C84.1081 253.479 86.1028 254.328 88.1936 254.848C90.2919 255.363 92.4536 255.57 94.6114 255.466L123.179 254.054L151.747 252.63L151.069 233.322L150.39 214.008L163.592 213.058L168.11 212.732C168.11 212.732 167.201 216.966 165.892 223.227C164.583 229.489 162.88 237.786 161.286 245.92C159.372 255.669 157.588 265.302 156.292 272.5C154.997 279.698 154.169 284.454 154.169 284.461L164.65 284.658L175.139 284.861C178.694 258.769 181.197 236.158 182.73 219.591C184.263 203.024 184.833 192.502 184.508 190.576C184.096 188.198 183.546 185.847 182.859 183.534C182.316 181.682 181.889 180.494 181.889 180.494C180.942 178.549 179.834 176.686 178.578 174.925C176.839 172.533 174.708 170.453 172.276 168.772C170.295 167.41 168.138 166.324 165.865 165.542C164.086 164.935 162.253 164.503 160.39 164.253L148.715 162.503L137.026 160.759Z" fill="#F4ECE5"/>
<path d="M268.793 68.2651C253.007 64.3685 236.376 65.8015 221.489 72.3408C206.602 78.8801 194.296 90.1587 186.486 104.42C178.677 118.682 175.802 135.125 178.311 151.19C180.819 167.255 188.57 182.04 200.355 193.242L147.263 269.088L94.1638 344.934L99.5911 348.747L105.018 352.566L157.941 277.053L210.81 201.532C219.788 207.398 229.938 211.234 240.552 212.772C251.166 214.311 261.988 213.515 272.262 210.439C282.537 207.364 292.016 202.083 300.039 194.966C308.062 187.849 314.436 179.067 318.714 169.233C322.993 159.399 325.074 148.749 324.813 138.028C324.551 127.306 321.953 116.771 317.2 107.157C312.447 97.5429 305.652 89.0821 297.292 82.3649C288.931 75.6476 279.205 70.8357 268.793 68.2651ZM236.399 199.442C222.602 196.034 210.413 187.946 201.91 176.558C193.407 165.17 189.116 151.187 189.768 136.989C190.419 122.792 195.973 109.26 205.483 98.6987C214.994 88.1374 227.872 81.2004 241.923 79.0697C255.975 76.939 270.331 79.7464 282.544 87.0136C294.758 94.2808 304.074 105.558 308.905 118.924C313.736 132.29 313.783 146.917 309.038 160.314C304.294 173.711 295.05 185.048 282.884 192.394C275.982 196.572 268.322 199.345 260.345 200.555C252.368 201.765 244.23 201.387 236.399 199.442Z" fill="#353519"/>
<path d="M168.43 213.547H168.301C168.19 213.53 168.084 213.491 167.988 213.433C167.893 213.375 167.81 213.298 167.744 213.207C167.678 213.118 167.63 213.016 167.605 212.907C167.579 212.799 167.576 212.686 167.595 212.576L168.423 207.264L169.25 201.946C169.268 201.836 169.307 201.731 169.365 201.637C169.423 201.543 169.5 201.461 169.59 201.396C169.771 201.263 169.998 201.207 170.221 201.24C170.331 201.257 170.437 201.295 170.533 201.354C170.628 201.412 170.711 201.489 170.777 201.579C170.906 201.763 170.959 201.989 170.926 202.21L170.098 207.522L169.271 212.841C169.236 213.041 169.133 213.223 168.979 213.357C168.823 213.482 168.629 213.549 168.43 213.547Z" fill="#353519"/>
<path d="M151.747 252.63C160.892 251.605 168.789 250.561 174.766 249.685C180.743 248.81 184.799 248.112 186.299 247.766C186.713 247.671 187.228 247.528 187.988 247.331C188.748 247.135 189.752 246.884 191.156 246.551C192.099 246.327 192.703 246.198 193.191 246.076C193.626 245.964 194.05 245.817 194.46 245.635C195.191 245.324 195.889 244.94 196.543 244.489C197.26 244.014 197.795 243.311 198.062 242.494C198.231 241.866 198.231 241.203 198.062 240.574C197.946 240.101 197.769 239.645 197.533 239.218L199.175 238.37C199.772 238.064 200.416 237.691 201.102 237.352C202.557 236.618 203.956 235.776 205.287 234.835C205.898 234.442 206.35 233.846 206.563 233.153C206.711 232.611 206.734 232.043 206.631 231.49C206.59 231.223 206.519 230.962 206.42 230.71C206.255 230.286 206.011 229.897 205.701 229.564C205.498 229.352 205.27 229.165 205.023 229.008C206.353 228.379 207.392 227.265 207.926 225.894C208.162 225.328 208.272 224.717 208.249 224.105C208.225 223.492 208.069 222.892 207.791 222.346C207.374 221.636 206.742 221.078 205.986 220.751C205.16 220.382 204.256 220.222 203.354 220.283C203.337 219.879 203.264 219.48 203.137 219.096C202.914 218.391 202.504 217.76 201.95 217.271C201.592 216.958 201.181 216.712 200.735 216.545C200.352 216.405 199.949 216.323 199.541 216.301C199.132 216.27 198.721 216.298 198.32 216.382C198.033 216.437 197.751 216.519 197.479 216.627L197.323 216.688L197.242 216.722C196.563 217.027 191.421 218.831 186.387 220.446C181.353 222.061 176.441 223.472 176.265 222.983C176.218 222.861 176.455 222.624 177.256 222.156C178.056 221.687 179.433 220.995 181.665 219.971L184.698 215.636L187.73 211.308L169.101 212.665L150.472 214.021L151.15 233.336L151.747 252.63Z" fill="#FFAA9F"/>
<path d="M181.156 230.751C180.978 230.75 180.805 230.693 180.661 230.588C180.512 230.482 180.402 230.329 180.349 230.154C180.314 230.049 180.3 229.937 180.31 229.826C180.319 229.715 180.351 229.608 180.403 229.51C180.509 229.309 180.689 229.158 180.905 229.089C183.205 228.37 185.498 227.569 187.757 226.701C190.016 225.833 192.255 224.89 194.44 223.885C195.878 223.207 197.309 222.529 198.72 221.81C200.132 221.09 201.536 220.331 202.913 219.55C203.009 219.495 203.115 219.46 203.224 219.448C203.334 219.435 203.445 219.444 203.551 219.476C203.659 219.505 203.76 219.555 203.849 219.624C203.937 219.693 204.011 219.778 204.066 219.876C204.175 220.072 204.202 220.302 204.142 220.518C204.083 220.733 203.941 220.917 203.747 221.029C202.35 221.816 200.932 222.583 199.494 223.316C198.056 224.048 196.604 224.754 195.152 225.425C192.927 226.452 190.665 227.404 188.368 228.282C186.075 229.17 183.748 229.978 181.407 230.71H181.285L181.156 230.751Z" fill="#AD4D4D"/>
<path d="M183.314 238.071C183.137 238.072 182.963 238.017 182.819 237.915C182.673 237.809 182.564 237.659 182.506 237.488C182.44 237.274 182.459 237.042 182.56 236.842C182.662 236.641 182.837 236.489 183.049 236.416C184.664 235.893 186.278 235.344 187.88 234.76C189.481 234.177 191.082 233.58 192.662 232.956C194.698 232.162 196.692 231.321 198.687 230.439C200.681 229.557 202.655 228.648 204.602 227.725C204.701 227.675 204.81 227.646 204.92 227.639C205.031 227.632 205.142 227.648 205.247 227.685C205.352 227.72 205.45 227.776 205.534 227.849C205.618 227.923 205.686 228.012 205.735 228.112C205.787 228.217 205.818 228.331 205.825 228.447C205.832 228.564 205.815 228.68 205.776 228.79C205.699 229.001 205.544 229.174 205.342 229.272C203.383 230.235 201.393 231.16 199.372 232.047C197.337 232.936 195.301 233.784 193.266 234.591C191.672 235.222 190.057 235.832 188.436 236.416C186.814 236.999 185.186 237.556 183.558 238.085H183.429L183.314 238.071Z" fill="#AD4D4D"/>
<path d="M185.39 244.489C185.211 244.488 185.036 244.43 184.891 244.324C184.746 244.218 184.638 244.069 184.583 243.899C184.547 243.793 184.534 243.682 184.543 243.571C184.552 243.46 184.584 243.352 184.637 243.254C184.687 243.154 184.757 243.066 184.842 242.993C184.927 242.921 185.026 242.867 185.132 242.834L187.222 242.155C187.9 241.925 188.613 241.687 189.298 241.477C190.621 241.009 191.957 240.527 193.28 240.018C194.603 239.509 195.926 238.994 197.235 238.451C197.39 238.387 197.561 238.37 197.726 238.403C197.891 238.436 198.042 238.518 198.161 238.637C198.279 238.756 198.36 238.908 198.392 239.073C198.424 239.238 198.406 239.409 198.341 239.564C198.298 239.666 198.235 239.759 198.156 239.837C198.077 239.915 197.983 239.977 197.88 240.018C196.563 240.568 195.227 241.097 193.884 241.606C192.541 242.114 191.17 242.61 189.854 243.078C189.176 243.315 188.463 243.56 187.758 243.79C187.052 244.021 186.347 244.251 185.648 244.469L185.519 244.502L185.39 244.489Z" fill="#AD4D4D"/>
<path d="M111.056 372.335H110.975H110.9C110.678 372.293 110.482 372.166 110.351 371.982C110.288 371.89 110.244 371.786 110.222 371.677C110.199 371.567 110.2 371.454 110.222 371.345L119.543 322.038L128.831 272.738C128.873 272.518 128.999 272.323 129.183 272.195C129.37 272.07 129.599 272.023 129.82 272.065C130.041 272.107 130.236 272.234 130.364 272.419C130.49 272.606 130.539 272.835 130.5 273.057L121.212 322.35L111.925 371.643C111.886 371.84 111.781 372.017 111.626 372.145C111.466 372.276 111.263 372.344 111.056 372.335Z" fill="#353519"/>
<path d="M117.841 216.796L122.386 207.929L126.931 199.069C127.035 198.87 127.213 198.719 127.427 198.649C127.642 198.58 127.875 198.6 128.076 198.702C128.276 198.805 128.428 198.984 128.498 199.198C128.565 199.412 128.545 199.643 128.444 199.843L124.577 207.387L120.71 214.924L135.547 214.035L150.391 213.146C150.616 213.138 150.837 213.216 151.008 213.363C151.133 213.475 151.222 213.621 151.264 213.783C151.306 213.946 151.299 214.117 151.244 214.275C151.189 214.433 151.088 214.571 150.954 214.672C150.82 214.773 150.66 214.832 150.492 214.842L134.17 215.819L117.841 216.796Z" fill="#353519"/>
<path d="M169.745 150.434C169.741 154.591 168.296 158.618 165.656 161.829C163.016 165.04 159.344 167.236 155.267 168.044C151.189 168.852 146.957 168.221 143.293 166.259C139.628 164.297 136.757 161.126 135.168 157.285C133.579 153.443 133.371 149.17 134.579 145.193C135.787 141.215 138.336 137.78 141.793 135.471C145.25 133.162 149.4 132.123 153.537 132.531C157.674 132.939 161.541 134.768 164.481 137.707C166.153 139.378 167.478 141.362 168.382 143.546C169.285 145.73 169.748 148.071 169.745 150.434Z" fill="#FFAA9F"/>
<path d="M149.502 149.973C149.502 150.322 149.363 150.656 149.116 150.902C148.863 151.143 148.528 151.277 148.179 151.277C147.831 151.277 147.495 151.143 147.243 150.902C147.12 150.78 147.023 150.635 146.956 150.474C146.89 150.314 146.855 150.143 146.855 149.969C146.855 149.796 146.89 149.624 146.956 149.464C147.023 149.304 147.12 149.159 147.243 149.037C147.434 148.866 147.668 148.753 147.92 148.71C148.172 148.668 148.431 148.697 148.667 148.795C148.903 148.892 149.107 149.055 149.254 149.263C149.402 149.472 149.488 149.718 149.502 149.973Z" fill="#353519"/>
<path d="M161.286 148.385C161.288 148.647 161.212 148.904 161.067 149.123C160.923 149.341 160.716 149.511 160.475 149.612C160.233 149.713 159.966 149.739 159.71 149.687C159.453 149.635 159.217 149.508 159.033 149.322C158.793 149.069 158.658 148.734 158.658 148.385C158.658 148.037 158.793 147.702 159.033 147.449C159.155 147.326 159.301 147.229 159.461 147.162C159.621 147.096 159.793 147.062 159.966 147.062C160.139 147.062 160.311 147.096 160.471 147.162C160.631 147.229 160.777 147.326 160.899 147.449C161.144 147.7 161.282 148.035 161.286 148.385Z" fill="#353519"/>
<path d="M154.597 159.009C153.418 158.993 152.263 158.678 151.239 158.093C150.749 157.82 150.294 157.49 149.882 157.11C149.801 157.033 149.736 156.94 149.692 156.838C149.647 156.735 149.624 156.625 149.624 156.513C149.619 156.289 149.702 156.072 149.855 155.909C149.932 155.828 150.024 155.763 150.127 155.719C150.229 155.675 150.34 155.652 150.452 155.651C150.675 155.646 150.892 155.729 151.055 155.882C151.473 156.262 151.947 156.575 152.46 156.811C153.361 157.266 154.384 157.418 155.379 157.246C156.373 157.074 157.286 156.586 157.982 155.855C158.35 155.477 158.661 155.047 158.905 154.579C158.978 154.427 159.095 154.301 159.242 154.217C159.388 154.132 159.556 154.094 159.724 154.106C159.892 154.119 160.053 154.182 160.185 154.287C160.317 154.391 160.415 154.534 160.465 154.695C160.501 154.8 160.515 154.911 160.507 155.022C160.499 155.132 160.468 155.24 160.418 155.339C160.092 155.97 159.674 156.549 159.176 157.055C158.358 157.902 157.323 158.507 156.184 158.806C155.924 158.876 155.658 158.928 155.39 158.962C155.127 158.995 154.862 159.011 154.597 159.009Z" fill="#AD4D4D"/>
<path d="M158.247 133.657C157.228 133.259 156.174 132.957 155.099 132.755C153.994 132.547 152.872 132.443 151.747 132.443C148.297 132.435 144.918 133.427 142.019 135.299C139.195 137.12 136.935 139.693 135.493 142.727C137.738 143.731 141.863 145.149 146.212 144.478C150.56 143.806 155.126 141.018 158.247 133.657Z" fill="#353519"/>
<path d="M187.588 416.317C182.059 407.423 180.349 397.999 181.781 389.601C182.428 385.508 183.919 381.594 186.159 378.108C188.399 374.622 191.339 371.64 194.793 369.35C200.155 365.986 206.236 363.934 212.54 363.36C219.324 362.681 226.556 363.787 232.77 367.661C237.752 370.754 241.54 375.443 243.516 380.965C244.587 383.834 245.188 386.858 245.294 389.92C250.299 388.532 255.626 388.862 260.422 390.856C264.778 392.708 268.102 395.883 269.384 399.675C270.325 402.603 270.141 405.776 268.868 408.576C267.432 411.75 265.106 414.439 262.172 416.317H187.588Z" fill="#666538"/>
<path d="M59.253 416.439C59.0334 416.436 58.8227 416.351 58.6627 416.201C58.5053 416.047 58.4131 415.838 58.4049 415.618L53.6561 293.273L48.9072 170.929C48.9027 170.817 48.9201 170.706 48.9586 170.602C48.9971 170.497 49.0558 170.401 49.1314 170.319C49.207 170.237 49.298 170.171 49.3992 170.124C49.5005 170.077 49.6099 170.051 49.7213 170.047C49.8326 170.038 49.9444 170.053 50.0495 170.091C50.1547 170.128 50.2508 170.187 50.3319 170.264C50.4963 170.42 50.5936 170.634 50.6032 170.861L55.3521 293.205L60.101 415.557C60.1072 415.779 60.0269 415.996 59.8771 416.16C59.8018 416.243 59.7108 416.309 59.6095 416.356C59.5081 416.402 59.3984 416.428 59.2869 416.432H59.253V416.439Z" fill="#666538"/>
<path d="M99.6662 114.092C98.4989 104.844 94.7918 96.1012 88.9562 88.833C83.1207 81.5649 75.3851 76.0561 66.6083 72.9182C57.8314 69.7804 48.3567 69.1362 39.2359 71.0573C30.1151 72.9783 21.7051 77.3894 14.9395 83.8008C11.6731 87.2137 8.85326 91.0274 6.54761 95.1506C2.63308 102.06 0.404037 109.795 0.0416584 117.728C-0.555342 132.158 5.3604 143.623 11.6153 151.608C15.4707 156.582 20.0433 160.955 25.1835 164.586C27.3653 165.795 29.6327 166.843 31.9676 167.72C37.331 169.727 42.9985 170.801 48.7244 170.895C51.1368 170.93 53.5488 170.796 55.9426 170.495C69.2164 168.809 81.2771 161.92 89.4716 151.343C97.6662 140.765 101.323 127.366 99.639 114.092H99.6662Z" fill="#4D007B"/>
<path d="M84.1503 121.018C81.1324 120.988 78.1884 120.08 75.677 118.406C73.028 116.671 70.9287 114.217 69.6256 111.33V111.297C66.5718 113.468 62.9613 114.723 59.2188 114.912C55.733 115.112 52.2786 114.158 49.3886 112.199C47.0077 110.526 45.1419 108.221 44.002 105.544C43.2733 103.882 42.7823 102.125 42.5435 100.327C42.5175 100.104 42.5783 99.8809 42.7131 99.7025C42.7823 99.6143 42.8683 99.5407 42.9661 99.486C43.0639 99.4313 43.1716 99.3965 43.2829 99.3836C43.393 99.3673 43.5053 99.374 43.6127 99.4032C43.7201 99.4324 43.8203 99.4835 43.9071 99.5532C43.9952 99.6224 44.0688 99.7084 44.1235 99.8062C44.1783 99.904 44.2131 100.012 44.2259 100.123C44.4394 101.746 44.8802 103.331 45.5353 104.831C46.5398 107.248 48.2072 109.332 50.3452 110.842C52.9531 112.591 56.0644 113.433 59.1984 113.237C62.5552 113.038 65.7871 111.892 68.5198 109.933C68.7332 109.78 68.9782 109.678 69.2366 109.633C69.495 109.589 69.7601 109.603 70.0123 109.675C70.2629 109.745 70.4947 109.87 70.6907 110.041C70.891 110.212 71.0509 110.425 71.1588 110.666C72.6205 113.898 75.1803 116.509 78.3839 118.033C79.8805 118.773 81.5084 119.21 83.1743 119.32C84.8402 119.429 86.5114 119.209 88.0919 118.671C90.6987 117.693 92.9032 115.871 94.3536 113.495C95.9084 111 96.6919 108.102 96.6059 105.164C96.6022 105.052 96.6206 104.94 96.6602 104.835C96.6998 104.731 96.7597 104.635 96.8366 104.553C96.9911 104.391 97.203 104.296 97.4268 104.289C97.6528 104.289 97.8705 104.374 98.0374 104.526C98.1991 104.678 98.2942 104.888 98.302 105.109C98.4081 108.391 97.5368 111.631 95.7986 114.417C94.1434 117.086 91.6503 119.13 88.7093 120.231C87.9821 120.494 87.2329 120.692 86.4705 120.821C85.7042 120.953 84.9279 121.019 84.1503 121.018Z" fill="#666538"/>
<path d="M59.2529 416.439H59.1172C59.0075 416.422 58.9024 416.383 58.808 416.325C58.7136 416.267 58.6319 416.19 58.5677 416.099C58.4346 415.918 58.3785 415.691 58.4116 415.469L72.2037 327.275L85.9958 239.082C86.0125 238.971 86.0511 238.865 86.1093 238.77C86.1676 238.674 86.2443 238.591 86.335 238.526C86.5249 238.4 86.7544 238.35 86.9795 238.383C87.2019 238.42 87.4014 238.541 87.5358 238.722C87.6638 238.906 87.7172 239.132 87.685 239.353L73.893 327.547L60.1009 415.74C60.0706 415.94 59.9695 416.123 59.8159 416.255C59.655 416.38 59.4561 416.444 59.2529 416.439Z" fill="#666538"/>
<path d="M113.546 224.754C114.454 230.329 113.401 236.047 110.567 240.933C107.732 245.82 103.292 249.572 98.0014 251.552C92.711 253.533 86.8977 253.617 81.5517 251.793C76.2056 249.968 71.6574 246.347 68.6816 241.545C65.7058 236.744 64.4863 231.059 65.231 225.46C65.9757 219.86 68.6384 214.692 72.7656 210.835C76.8929 206.978 82.2295 204.671 87.8666 204.307C93.5037 203.943 99.0927 205.544 103.682 208.838C106.294 210.71 108.51 213.08 110.203 215.811C111.895 218.543 113.032 221.582 113.546 224.754V224.754Z" fill="#4D007B"/>
<path d="M81.9053 227.712C81.7085 227.712 81.505 227.712 81.3015 227.712C81.0987 227.691 80.8972 227.659 80.6977 227.617C79.3682 227.355 78.155 226.681 77.231 225.69C76.2992 224.692 75.6954 223.433 75.5011 222.081C75.4735 221.858 75.5317 221.632 75.6639 221.45C75.799 221.271 75.9986 221.152 76.2202 221.118C76.4431 221.087 76.6693 221.145 76.8496 221.279C77.03 221.414 77.15 221.614 77.1835 221.837C77.3178 222.853 77.766 223.802 78.4657 224.55C79.1442 225.288 80.0402 225.789 81.0233 225.982C81.9717 226.167 82.9539 226.058 83.8387 225.67C84.7338 225.276 85.4951 224.63 86.03 223.811C86.1433 223.629 86.2997 223.477 86.4855 223.369C86.6712 223.262 86.8806 223.201 87.0951 223.194C87.3074 223.177 87.5203 223.217 87.7125 223.309C87.9111 223.397 88.0857 223.532 88.2213 223.702C88.9595 224.632 89.9938 225.281 91.152 225.541C92.245 225.804 93.3975 225.634 94.3677 225.066C95.183 224.557 95.8022 223.787 96.1247 222.882C96.479 221.919 96.5427 220.874 96.3079 219.876C96.2826 219.768 96.2792 219.656 96.2979 219.546C96.3165 219.437 96.3568 219.332 96.4165 219.238C96.5358 219.047 96.726 218.91 96.9456 218.859C97.1642 218.811 97.3929 218.849 97.5833 218.967C97.7748 219.086 97.9114 219.277 97.9632 219.496C98.2727 220.84 98.1759 222.245 97.6851 223.533C97.2011 224.836 96.2649 225.923 95.0471 226.594C93.8292 227.265 92.4108 227.476 91.0502 227.189C89.5604 226.919 88.2001 226.168 87.1765 225.052C86.5565 225.877 85.7528 226.546 84.8292 227.006C83.9233 227.467 82.9217 227.709 81.9053 227.712Z" fill="#666538"/>
<path d="M241.203 416.242C241.149 414.105 241.361 411.97 241.834 409.885C242.589 406.47 244.105 403.27 246.271 400.523C248.729 397.45 251.95 395.076 255.612 393.637C258.092 392.663 260.676 391.98 263.312 391.602C267.472 390.915 271.728 391.078 275.822 392.084C279.903 393.089 283.71 394.986 286.969 397.64C288.792 399.137 290.409 400.868 291.778 402.789C292.49 403.778 293.123 404.821 293.671 405.91C295.275 409.126 296.166 412.65 296.283 416.242H268.746H241.203Z" fill="#F4ECE5"/>
<path d="M279.444 399.39C279.433 399.889 279.308 400.379 279.079 400.822C278.85 401.265 278.522 401.65 278.122 401.948C277.194 402.635 276.07 403.005 274.916 403.005C273.762 403.005 272.638 402.635 271.711 401.948C271.3 401.66 270.966 401.277 270.735 400.833C270.503 400.388 270.383 399.895 270.383 399.394C270.383 398.892 270.503 398.399 270.735 397.954C270.966 397.51 271.3 397.127 271.711 396.839C272.638 396.152 273.762 395.782 274.916 395.782C276.07 395.782 277.194 396.152 278.122 396.839C278.522 397.135 278.85 397.519 279.079 397.961C279.308 398.403 279.433 398.892 279.444 399.39Z" fill="#F98638"/>
<path d="M140.818 371.908C140.316 376.372 139.812 380.833 139.305 385.293C138.799 389.752 138.292 394.212 137.786 398.671C137.728 399.059 137.707 399.452 137.724 399.845C137.742 400.236 137.808 400.623 137.921 400.998C138.072 401.501 138.301 401.977 138.6 402.409C138.894 402.834 139.256 403.207 139.671 403.515L147.134 408.942L154.596 414.369C154.766 414.497 154.893 414.673 154.96 414.874C155.027 415.075 155.03 415.292 154.97 415.496C154.937 415.697 154.838 415.883 154.688 416.022C154.538 416.16 154.346 416.245 154.142 416.262H93.37C92.9041 416.26 92.4441 416.158 92.0206 415.964C91.5971 415.77 91.2199 415.488 90.9142 415.136C90.2535 414.387 89.8913 413.421 89.8965 412.422L93.967 391.962L98.0375 371.501C105.656 371.501 112.549 371.609 119.441 371.711C126.334 371.813 133.206 371.908 140.818 371.908Z" fill="#4D007B"/>
<path d="M110.554 371.908L108.519 385.293L106.518 398.671C106.457 399.059 106.436 399.452 106.457 399.845C106.468 400.236 106.534 400.625 106.654 400.998C106.805 401.501 107.034 401.977 107.332 402.409C107.623 402.837 107.985 403.211 108.404 403.515L115.866 408.942L123.329 414.369C123.497 414.497 123.623 414.674 123.688 414.875C123.754 415.076 123.756 415.293 123.695 415.496C123.654 415.696 123.545 415.877 123.387 416.007C123.229 416.138 123.032 416.211 122.827 416.215H58.4865C58.0206 416.212 57.5605 416.111 57.1371 415.917C56.7136 415.722 56.3364 415.44 56.0306 415.089C55.37 414.339 55.0078 413.374 55.013 412.375L59.4362 392.124L63.9137 371.908H110.582H110.554Z" fill="#4D007B"/>
<path d="M123.783 417.11C123.667 417.111 123.551 417.088 123.444 417.042C123.332 416.993 123.232 416.919 123.152 416.825C123.004 416.658 122.926 416.439 122.935 416.215C122.942 416.104 122.97 415.995 123.019 415.894C123.068 415.794 123.136 415.705 123.22 415.631C123.314 415.556 123.385 415.454 123.424 415.34C123.464 415.166 123.435 414.983 123.342 414.831C123.264 414.7 123.163 414.585 123.044 414.492C122.915 414.383 122.759 414.275 122.603 414.166L122.481 414.078L122.352 413.99L121.463 413.311L120.567 412.667L119.306 411.764L118.051 410.862L117.515 410.482L116.979 410.102C115.832 409.281 114.652 408.433 113.458 407.558C112.264 406.683 111.049 405.788 109.849 404.845C108.769 404.101 107.834 403.168 107.087 402.09C106.342 400.833 106.044 399.36 106.239 397.911C106.287 397.375 106.355 396.839 106.436 396.304C106.518 395.768 106.613 395.252 106.701 394.736L106.864 393.807C106.911 393.495 106.965 393.19 107.006 392.878C107.345 390.523 107.684 388.129 108.058 385.781C108.431 383.434 108.777 381.032 109.136 378.76C109.319 377.586 109.496 376.412 109.679 375.246C109.862 374.079 110.039 372.898 110.215 371.731C110.232 371.621 110.27 371.515 110.329 371.419C110.387 371.324 110.463 371.241 110.554 371.175C110.643 371.109 110.743 371.061 110.85 371.034C110.958 371.007 111.069 371.002 111.178 371.019C111.4 371.052 111.6 371.171 111.735 371.352C111.868 371.533 111.924 371.76 111.891 371.982C111.714 373.156 111.538 374.33 111.355 375.503C111.172 376.677 110.995 377.844 110.812 379.018C110.452 381.324 110.093 383.678 109.733 386.039C109.374 388.4 109.055 390.788 108.689 393.122C108.641 393.434 108.587 393.753 108.539 394.072C108.492 394.39 108.431 394.709 108.37 395.028C108.288 395.523 108.193 396.032 108.119 396.541C108.044 397.05 107.976 397.559 107.929 398.061C107.776 399.101 107.967 400.163 108.471 401.086C109.114 402.035 109.932 402.852 110.88 403.495C112.074 404.41 113.275 405.306 114.462 406.174C115.649 407.043 116.829 407.884 117.969 408.698L118.498 409.085L119.034 409.465L120.296 410.367L121.558 411.269L122.453 411.948L123.349 412.626L123.458 412.701L123.573 412.782C123.811 412.94 124.038 413.115 124.251 413.304C124.492 413.518 124.692 413.773 124.841 414.057C125.097 414.523 125.19 415.06 125.106 415.584C125.012 416.099 124.743 416.566 124.346 416.907C124.268 416.976 124.179 417.031 124.082 417.07C123.985 417.1 123.884 417.114 123.783 417.11Z" fill="#353519"/>
<path d="M111.361 478.004C111.077 478.819 109.91 479.239 108.248 479.266C104.091 479.108 100.076 477.714 96.7146 475.264C95.4256 474.219 94.7675 473.167 95.0457 472.346C95.3238 471.526 96.4975 471.112 98.1596 471.091C102.316 471.243 106.333 472.635 109.693 475.087C110.988 476.132 111.646 477.184 111.361 478.004Z" fill="#F98638"/>
<path d="M199.942 434.735C200.417 435.461 200.044 436.641 199.053 437.978C196.409 441.191 192.865 443.541 188.877 444.728C187.256 445.122 186.021 444.999 185.546 444.28C185.071 443.561 185.444 442.374 186.435 441.044C187.723 439.417 189.276 438.018 191.028 436.906C192.736 435.732 194.627 434.849 196.625 434.294C198.239 433.901 199.467 434.016 199.942 434.735Z" fill="#F98638"/>
<path d="M205.844 482.611C206.651 482.923 207.031 484.103 206.991 485.766C206.699 489.922 205.165 493.895 202.588 497.17C201.495 498.425 200.424 499.049 199.616 498.737C198.809 498.425 198.429 497.244 198.47 495.582C198.761 491.425 200.295 487.452 202.873 484.178C203.965 482.93 205.023 482.306 205.844 482.611Z" fill="#F98638"/>
<path d="M415.744 495.5C416.219 496.22 415.846 497.407 414.855 498.743C413.562 500.365 412.01 501.763 410.262 502.882C408.553 504.056 406.659 504.936 404.659 505.487C403.044 505.88 401.809 505.765 401.328 505.046C400.846 504.327 401.226 503.139 402.223 501.803C404.867 498.591 408.411 496.243 412.399 495.059C414.028 494.666 415.269 494.781 415.744 495.5Z" fill="#F98638"/>
<path d="M240.735 485.724C239.921 486.009 238.862 485.351 237.817 484.062C235.353 480.708 233.953 476.689 233.801 472.529C233.801 470.867 234.235 469.7 235.056 469.415C235.877 469.131 236.922 469.789 237.973 471.078C240.428 474.438 241.826 478.453 241.99 482.611C241.969 484.273 241.549 485.446 240.735 485.724Z" fill="#F98638"/>
<path d="M508.374 430.76C508.849 431.479 508.476 432.666 507.485 434.003C506.192 435.625 504.64 437.023 502.893 438.141C501.183 439.317 499.289 440.199 497.289 440.753C495.674 441.139 494.44 441.024 493.958 440.305C493.476 439.586 493.863 438.399 494.853 437.069C496.141 435.444 497.691 434.045 499.439 432.931C501.151 431.757 503.044 430.875 505.043 430.319C506.658 429.925 507.899 430.041 508.374 430.76Z" fill="#F98638"/>
<path d="M124.882 519.706C124.204 520.256 123.003 520.005 121.572 519.157C118.1 516.866 115.392 513.589 113.797 509.747C113.234 508.18 113.227 506.932 113.892 506.355C114.557 505.778 115.771 506.057 117.203 506.898C120.676 509.203 123.381 512.494 124.971 516.348C125.54 517.888 125.547 519.157 124.882 519.706Z" fill="#F98638"/>
<path d="M329.81 491.885C330.617 492.197 330.997 493.384 330.956 495.046C330.665 499.203 329.131 503.176 326.553 506.45C325.461 507.705 324.389 508.322 323.582 508.01C322.775 507.698 322.395 506.518 322.435 504.856C322.729 500.704 324.263 496.736 326.838 493.465C327.93 492.197 329.002 491.579 329.81 491.885Z" fill="#F98638"/>
<path d="M307.15 538.003C306.472 538.552 305.264 538.301 303.833 537.453C300.358 535.157 297.65 531.873 296.058 528.023C295.502 526.456 295.489 525.208 296.153 524.631C296.818 524.055 298.039 524.333 299.471 525.174C302.944 527.475 305.652 530.761 307.245 534.611C307.802 536.205 307.815 537.453 307.15 538.003Z" fill="#F98638"/>
<path d="M387.82 479.558C387.21 480.168 385.975 480.04 384.469 479.334C380.793 477.377 377.784 474.367 375.826 470.691C375.148 469.185 374.992 467.977 375.602 467.34C376.213 466.702 377.448 466.858 378.954 467.564C382.63 469.521 385.639 472.53 387.597 476.207C388.302 477.713 388.431 478.947 387.82 479.558Z" fill="#F98638"/>
<path d="M451.184 415.448H444.339H437.494C437.494 415.482 437.494 415.516 437.528 415.55C437.561 415.584 437.528 415.618 437.528 415.652H451.218V415.577C451.218 415.577 451.191 415.448 451.184 415.448Z" fill="#F4ECE5"/>
<path d="M434.054 552.914C434.8 551.761 435.526 550.601 436.232 549.42C436.937 548.24 437.589 547.039 438.267 545.825C444.307 534.685 448.805 522.776 451.639 510.425C455.703 491.571 457.327 472.273 456.469 453.005C455.831 440.405 454.074 427.886 451.218 415.597H437.555C440.434 424.909 442.558 434.437 443.905 444.091C445.585 456.176 445.992 468.405 445.119 480.575C444.567 489.281 443.349 497.931 441.476 506.45C438.833 518.383 434.548 529.893 428.742 540.649C427.793 542.392 426.788 544.095 425.744 545.764C424.699 547.433 423.586 549.068 422.447 550.655C417.61 549.41 412.908 547.69 408.41 545.52C404.17 543.466 400.174 540.942 396.497 537.996C389.993 532.619 384.031 526.618 378.696 520.079C373.194 513.519 368.052 506.511 362.991 499.686C361.858 498.153 360.705 496.586 359.545 495.026C358.384 493.465 357.218 491.905 356.051 490.372C355.291 489.361 354.477 488.241 353.629 487.054C352.781 485.867 351.899 484.605 350.983 483.309C348.039 479.117 344.735 474.409 341.078 469.85C337.502 465.259 333.473 461.04 329.05 457.258C323.442 452.614 317.836 449.789 312.232 448.785C306.564 447.797 300.728 448.67 295.598 451.275C285.075 456.377 278.82 466.254 274.811 477.787C270.802 489.32 269.017 502.529 267.43 514.299C267.016 517.366 266.616 520.351 266.195 523.119C265.775 525.886 265.32 528.546 264.838 530.873C264.492 532.481 264.16 534.041 263.746 535.567C263.332 537.094 262.959 538.566 262.545 540.004C258.324 535.254 253.64 530.936 248.563 527.114C243.679 523.445 238.405 520.323 232.838 517.807C226.066 514.704 218.863 512.646 211.475 511.701C204.132 510.796 196.693 511.025 189.42 512.379C182.224 513.695 175.204 515.834 168.497 518.756C168.457 518.58 168.423 518.404 168.382 518.227L168.28 517.725C167.107 511.938 166.198 506.932 165.492 501.28C164.787 495.629 164.271 489.313 163.891 480.928L163.83 479.571C163.83 479.103 163.789 478.642 163.776 478.181C174.087 477.911 184.295 476.053 194.04 472.672C199.415 470.838 204.609 468.511 209.555 465.718C216.12 461.979 222.209 457.459 227.689 452.259C231.304 448.803 234.685 445.111 237.811 441.207C244.027 433.611 249.2 425.217 253.19 416.249H247.885H242.58C234.807 431.373 223.193 444.187 208.904 453.405C195.381 462.191 179.692 467.065 163.572 467.489C163.47 456.946 163.83 447.293 164.427 438.704C165.024 430.115 165.845 422.585 166.673 416.316H161.245H155.818C154.604 425.753 153.783 434.708 153.315 443.168C152.847 451.628 152.636 459.585 152.731 467.028C151.999 466.939 151.266 466.851 150.533 466.743C149.8 466.634 149.068 466.526 148.335 466.403C127.094 462.747 111.64 451.187 101.267 440.047C94.601 432.919 89.0046 424.862 84.6528 416.126L79.2798 416.181L73.9136 416.235C76.3934 422.447 79.4816 428.399 83.1332 434.003C88.4673 442.213 94.99 449.586 102.488 455.881C107.335 460.014 112.559 463.682 118.092 466.838C126.95 471.885 136.631 475.33 146.687 477.014C147.06 477.082 147.826 477.204 148.905 477.346C149.984 477.489 151.381 477.645 153.03 477.787C153.396 486.552 154.081 494.469 154.916 501.491C155.75 508.512 156.727 514.652 157.69 519.862C157.806 520.493 157.935 521.151 158.064 521.816C158.192 522.481 158.342 523.173 158.491 523.851C157.494 524.448 156.524 525.059 155.567 525.683C154.61 526.307 153.681 526.952 152.772 527.61C147.01 531.721 141.939 536.725 137.752 542.433C132.534 549.53 129.108 557.783 127.766 566.489C127.438 568.597 127.23 570.722 127.142 572.853C129 574.698 130.893 576.503 132.813 578.28C134.733 580.057 136.68 581.801 138.654 583.517C138.093 580.092 137.88 576.619 138.017 573.151C138.376 563.564 141.867 554.359 147.955 546.944C151.773 542.281 156.288 538.236 161.34 534.95C163.051 540.592 165.209 546.088 167.792 551.388C170.733 557.422 174.3 563.129 178.436 568.416C183.972 575.451 190.254 580.79 197.133 584.372C204.014 587.968 211.669 589.831 219.432 589.799C220.715 589.799 222.004 589.752 223.306 589.657C224.609 589.562 225.925 589.419 227.248 589.23C235.354 588.188 243.071 585.135 249.696 580.349C256.119 575.65 261.505 569.178 265.856 560.933C275.741 572.059 285.951 580.675 296.778 586.977C307.427 593.204 319.173 597.328 331.377 599.128C349.08 601.795 367.172 599.847 383.9 593.47C400.629 587.094 415.428 576.505 426.863 562.731C430.481 563.405 434.244 563.914 438.152 564.257C442.059 564.601 446.089 564.773 450.241 564.773C452.9 564.773 455.614 564.703 458.382 564.563C461.15 564.422 463.974 564.212 466.855 563.932C468.664 561.951 470.426 559.943 472.14 557.907C473.854 555.872 475.548 553.803 477.221 551.7C469.639 552.889 461.99 553.605 454.318 553.844C447.55 554.073 440.773 553.763 434.054 552.914V552.914ZM225.681 578.524C224.588 578.68 223.517 578.802 222.465 578.877C221.413 578.952 220.382 578.992 219.365 578.992C205.023 578.986 194.42 571.482 186.706 561.544C178.992 551.605 174.142 539.231 171.245 529.489C174.55 527.957 177.949 526.639 181.421 525.54C184.68 524.513 187.999 523.689 191.36 523.071C203.489 520.842 216.007 522.278 227.316 527.196C238.699 532.08 249.215 540.364 258.081 551.707L258.143 551.781L258.197 551.849C254.635 559.82 250.198 565.96 244.805 570.37C239.311 574.81 232.689 577.634 225.681 578.524V578.524ZM388.499 579.63C371.368 588.253 351.979 591.335 333.019 588.449C321.352 586.764 310.158 582.69 300.136 576.482C289.913 570.18 280.265 561.455 270.68 549.977C271.584 547.435 272.443 544.764 273.258 541.965C274.072 539.165 274.795 536.243 275.428 533.2C275.971 530.662 276.446 527.888 276.894 524.957C277.342 522.026 277.755 518.939 278.183 515.758C279.594 505.283 281.181 493.519 284.383 483.425C287.586 473.33 292.423 464.891 300.326 461.037C307.789 457.394 314.905 459.728 321.791 465.372C328.677 471.017 335.359 479.951 342.096 489.537C343.032 490.894 343.948 492.176 344.809 493.418C345.671 494.659 346.553 495.833 347.374 496.918C348.514 498.424 349.667 499.964 350.813 501.511C351.96 503.058 353.106 504.605 354.205 506.124C359.477 513.261 364.829 520.52 370.623 527.406C376.342 534.352 382.722 540.728 389.673 546.442C393.341 549.384 397.285 551.965 401.45 554.149C405.779 556.413 410.299 558.292 414.957 559.766C407.384 567.91 398.417 574.635 388.479 579.623L388.499 579.63Z" fill="#18B7A3"/>
<path d="M272.423 441.418L265.449 436.981L258.481 432.551C258.383 432.482 258.264 432.448 258.144 432.453C258.024 432.458 257.908 432.503 257.816 432.58C257.723 432.657 257.659 432.762 257.632 432.879C257.605 432.997 257.618 433.12 257.667 433.229L267.565 458.568L277.463 483.913C277.667 484.437 277.974 484.915 278.364 485.319C278.755 485.723 279.222 486.046 279.739 486.267C280.255 486.489 280.811 486.605 281.373 486.61C281.935 486.615 282.493 486.507 283.013 486.294L300.489 479.171L317.958 472.041L308.921 450.773C305.918 443.686 302.908 436.594 299.892 429.498L286.154 435.461L272.423 441.418Z" fill="#18B7A3" fill-opacity="0.5"/>
<path d="M423.722 403.149H360.541L330.216 416.317L299.892 429.484C302.904 436.572 305.914 443.663 308.921 450.759L317.958 472.028L353.913 457.354L389.869 442.673L418.993 459.898L448.124 477.122L460.403 456.261L472.683 435.4L448.233 419.274L423.722 403.149Z" fill="#666538"/>
<path d="M515.619 447.896L508.157 450.827L500.694 453.758L486.739 444.579L472.791 435.4L460.512 456.261L448.233 477.122L466.19 487.746L484.155 498.37C484.645 498.659 485.188 498.846 485.753 498.921C486.317 498.996 486.89 498.956 487.439 498.805C487.988 498.654 488.5 498.394 488.947 498.041C489.393 497.687 489.763 497.248 490.037 496.749C494.419 488.734 498.806 480.722 503.198 472.713L516.305 448.69C516.36 448.591 516.383 448.477 516.371 448.364C516.359 448.251 516.312 448.144 516.237 448.059C516.164 447.97 516.065 447.907 515.955 447.877C515.844 447.848 515.726 447.855 515.619 447.896V447.896Z" fill="#18B7A3" fill-opacity="0.5"/>
<path d="M379.056 328.551C378.533 328.551 377.889 328.551 377.142 328.551C376.308 328.588 375.477 328.672 374.653 328.802C372.337 329.167 370.093 329.895 368.004 330.959C365.801 332.121 363.709 333.483 361.756 335.029C358.272 337.727 354.989 340.675 351.933 343.849C349.124 346.746 346.797 349.479 345.013 351.705L332.191 367.613L319.369 383.522C318.18 384.995 317.179 386.611 316.391 388.332C315.604 390.058 315.06 391.884 314.776 393.759C314.478 395.613 314.478 397.503 314.776 399.356C315.13 401.461 315.943 403.462 317.157 405.218L317.476 405.686C317.585 405.842 317.687 405.998 317.788 406.161C319.971 409.595 322.781 412.587 326.072 414.98C330.495 418.012 336.336 419.647 342.889 415.421L348.9 411.086L354.911 406.758C355.617 406.181 356.238 405.507 356.756 404.756C357.266 404.101 357.601 403.328 357.731 402.508C357.86 401.688 357.779 400.849 357.496 400.069L353.289 391.134L349.09 382.206H430.323C429.475 386.453 428.729 390.232 428.071 393.495C427.413 396.758 426.849 399.492 426.354 401.636C426.183 402.318 426.078 403.016 426.042 403.718C425.983 404.783 426.195 405.845 426.659 406.805C427.123 407.765 427.824 408.592 428.695 409.207C429.418 409.737 430.193 410.191 431.008 410.564C435.508 412.709 440.14 414.567 444.875 416.126C448.823 417.429 452.269 418.345 455.675 419.41C456.285 419.605 456.905 419.764 457.534 419.885C459.662 420.301 461.858 420.198 463.938 419.586C464.632 419.386 465.312 419.139 465.973 418.847C469.718 417.192 472.235 414.098 473.836 411.384C474.849 409.68 475.646 407.857 476.211 405.957C476.457 405.054 476.634 404.133 476.74 403.203C476.967 401.361 476.985 399.499 476.794 397.653C476.503 394.869 475.751 392.152 474.569 389.614C473.662 387.696 472.603 385.854 471.401 384.106C466.652 376.962 462.968 371.792 460.431 368.407C457.893 365.022 456.55 363.428 456.55 363.428C453.995 360.415 451.369 357.347 448.674 354.222C445.978 351.096 443.21 347.93 440.37 344.724C438.479 342.573 436.422 340.574 434.217 338.747C432.017 336.918 429.663 335.281 427.182 333.856C424.203 332.099 421.011 330.731 417.684 329.785C415.139 329.069 412.497 328.755 409.855 328.856C408.939 328.903 407.739 328.93 406.538 328.937C405.337 328.944 404.136 328.937 403.227 328.937L391.165 328.774L379.056 328.551Z" fill="#F4ECE5"/>
<path d="M357.292 354.941V406.12L374.151 411.975L391.002 417.829L408.804 411.785L426.599 405.747L426.775 379.723L426.958 353.699L408.77 358.882L390.589 364.059L373.947 359.5L357.292 354.941Z" fill="#F98638"/>
<path d="M377.888 315.668C377.887 319.832 379.329 323.868 381.97 327.088C384.611 330.307 388.287 332.512 392.371 333.325C396.455 334.139 400.695 333.511 404.367 331.549C408.04 329.586 410.919 326.411 412.513 322.564C414.108 318.717 414.319 314.436 413.11 310.451C411.902 306.466 409.349 303.023 405.887 300.709C402.424 298.396 398.267 297.354 394.123 297.762C389.978 298.17 386.104 300.003 383.159 302.947C381.486 304.616 380.159 306.599 379.255 308.782C378.35 310.965 377.886 313.305 377.888 315.668Z" fill="#FFAA9F"/>
<path d="M392.563 314.745C392.595 315.074 392.756 315.376 393.01 315.586C393.136 315.689 393.282 315.767 393.438 315.813C393.594 315.86 393.757 315.875 393.919 315.858C394.248 315.825 394.55 315.664 394.761 315.41C394.865 315.284 394.943 315.139 394.991 314.983C395.039 314.827 395.055 314.663 395.039 314.501C395.001 314.172 394.839 313.871 394.584 313.659C394.458 313.555 394.313 313.477 394.156 313.429C394 313.381 393.835 313.365 393.672 313.381C393.509 313.398 393.351 313.446 393.207 313.524C393.063 313.602 392.937 313.708 392.834 313.836C392.729 313.961 392.651 314.106 392.604 314.262C392.557 314.419 392.543 314.583 392.563 314.745Z" fill="#353519"/>
<path d="M383.492 314.365C383.525 314.694 383.686 314.996 383.94 315.206C384.067 315.311 384.213 315.389 384.37 315.436C384.528 315.483 384.693 315.497 384.856 315.478C385.018 315.462 385.176 315.415 385.32 315.339C385.464 315.262 385.592 315.157 385.695 315.031C385.799 314.905 385.876 314.76 385.923 314.603C385.97 314.447 385.985 314.283 385.969 314.121C385.936 313.792 385.775 313.49 385.521 313.28C385.394 313.175 385.248 313.097 385.091 313.05C384.933 313.004 384.768 312.989 384.605 313.008C384.278 313.043 383.978 313.204 383.77 313.458C383.562 313.712 383.462 314.038 383.492 314.365Z" fill="#353519"/>
<path d="M390.052 323.761H389.727H389.401C388.229 323.639 387.114 323.195 386.179 322.479C385.609 322.056 385.108 321.548 384.693 320.973C384.565 320.789 384.513 320.563 384.55 320.342C384.587 320.122 384.709 319.924 384.89 319.792C384.98 319.727 385.083 319.68 385.192 319.655C385.301 319.629 385.414 319.625 385.524 319.644C385.635 319.662 385.74 319.702 385.835 319.761C385.93 319.82 386.012 319.898 386.077 319.989C386.388 320.417 386.761 320.796 387.183 321.115C387.981 321.733 388.957 322.076 389.967 322.096C390.976 322.115 391.964 321.81 392.786 321.224C393.255 320.914 393.674 320.534 394.028 320.098C394.096 320.009 394.18 319.935 394.277 319.879C394.374 319.823 394.48 319.787 394.591 319.772C394.815 319.744 395.042 319.804 395.222 319.942C395.309 320.01 395.383 320.095 395.438 320.191C395.492 320.288 395.527 320.394 395.541 320.505C395.558 320.614 395.552 320.726 395.524 320.834C395.496 320.941 395.446 321.042 395.378 321.129C394.946 321.646 394.446 322.103 393.892 322.486C392.778 323.303 391.434 323.749 390.052 323.761Z" fill="#AD4D4D"/>
<path d="M395.88 297.676C394.124 297.674 392.378 297.93 390.697 298.436C389.074 298.928 387.528 299.645 386.104 300.566C386.393 301.109 386.724 301.628 387.094 302.12C387.518 302.672 387.995 303.181 388.519 303.639C390.263 305.132 392.417 306.064 394.699 306.312C397.16 306.585 399.651 306.25 401.952 305.335C401.538 306.667 401.328 308.053 401.328 309.447C401.272 311.688 401.829 313.902 402.938 315.851C404.048 317.799 405.667 319.408 407.623 320.505C409.177 321.387 410.895 321.941 412.671 322.133C413.718 319.407 414.087 316.468 413.746 313.568C413.404 310.668 412.362 307.895 410.709 305.487C409.056 303.08 406.843 301.111 404.259 299.75C401.676 298.389 398.8 297.678 395.88 297.676Z" fill="#AD4D4D"/>
<path d="M390.589 418.162C390.477 418.164 390.366 418.143 390.262 418.101C390.158 418.059 390.064 417.997 389.985 417.917C389.906 417.838 389.843 417.744 389.801 417.64C389.759 417.537 389.739 417.426 389.741 417.314V364.567C389.739 364.455 389.759 364.344 389.801 364.241C389.843 364.137 389.906 364.043 389.985 363.964C390.064 363.885 390.158 363.822 390.262 363.78C390.366 363.738 390.477 363.718 390.589 363.719C390.814 363.719 391.029 363.809 391.188 363.968C391.347 364.127 391.437 364.342 391.437 364.567V417.361C391.437 417.586 391.347 417.802 391.188 417.961C391.029 418.12 390.814 418.209 390.589 418.209V418.162Z" fill="#AD4D4D"/>
<path d="M357.577 377.322V367.96C357.559 367.484 357.388 367.027 357.089 366.657C356.79 366.265 356.36 365.995 355.877 365.896C355.394 365.797 354.892 365.877 354.463 366.121C353.992 366.371 353.626 366.783 353.432 367.281L350.61 374.608L347.781 381.955V382.003C347.781 382.003 347.496 382.681 347.191 383.766C346.803 385.059 346.542 386.386 346.411 387.728C346.312 390.281 346.656 392.831 347.428 395.266C348.426 398.4 350.278 401.554 353.588 402.898C355.055 403.479 356.636 403.711 358.208 403.576C359.008 403.519 359.8 403.376 360.569 403.149C361.152 402.972 361.706 402.709 362.211 402.368C362.76 402.016 363.425 401.521 364.558 400.754C364.599 400.754 366.675 399.322 369.205 397.565C371.736 395.808 374.734 393.698 376.614 392.253C376.861 392.08 377.088 391.88 377.292 391.656C377.586 391.33 377.806 390.943 377.936 390.523C378.03 390.211 378.069 389.885 378.052 389.56C378.043 389.368 378.014 389.176 377.964 388.99C377.857 388.564 377.655 388.167 377.373 387.83C377.207 387.632 377.015 387.457 376.803 387.308C377.014 387.159 377.808 386.629 378.771 385.883C379.802 385.113 380.791 384.288 381.735 383.414C381.968 383.209 382.179 382.982 382.366 382.735C382.605 382.4 382.771 382.019 382.855 381.616C382.889 381.453 382.91 381.287 382.916 381.121C382.926 380.859 382.889 380.597 382.807 380.347C382.638 379.858 382.317 379.435 381.892 379.14C381.649 378.972 381.387 378.835 381.111 378.733C381.371 378.431 381.586 378.092 381.749 377.729C382.057 377.091 382.152 376.371 382.02 375.674C381.888 374.978 381.536 374.343 381.016 373.862C380.771 373.631 380.498 373.433 380.202 373.272C379.598 372.97 378.92 372.847 378.248 372.919C377.552 372.992 376.886 373.245 376.315 373.651C375.987 373 375.505 372.439 374.911 372.016C374.61 371.812 374.287 371.644 373.947 371.514C373.2 371.245 372.396 371.175 371.614 371.311C371.146 371.388 370.69 371.525 370.257 371.718L363.941 374.54L357.577 377.322Z" fill="#FFAA9F"/>
<path d="M362.957 383.027C362.814 383.026 362.674 382.989 362.548 382.92C362.423 382.852 362.316 382.753 362.238 382.633C362.12 382.443 362.079 382.215 362.123 381.996C362.147 381.887 362.192 381.785 362.256 381.694C362.32 381.603 362.402 381.526 362.496 381.466L369.144 377.186L375.799 372.905C375.892 372.843 375.997 372.802 376.106 372.782C376.216 372.762 376.328 372.765 376.437 372.79C376.546 372.811 376.649 372.855 376.74 372.918C376.831 372.981 376.908 373.062 376.966 373.156C377.027 373.249 377.069 373.354 377.089 373.463C377.109 373.573 377.106 373.685 377.082 373.794C377.06 373.903 377.017 374.007 376.954 374.099C376.891 374.192 376.809 374.27 376.715 374.33L370.067 378.61L363.412 382.884C363.344 382.932 363.268 382.966 363.188 382.986C363.113 383.01 363.035 383.023 362.957 383.027Z" fill="#AD4D4D"/>
<path d="M366.668 388.393C366.525 388.394 366.385 388.359 366.26 388.291C366.13 388.224 366.022 388.12 365.948 387.993C365.888 387.899 365.848 387.793 365.829 387.683C365.81 387.572 365.814 387.459 365.84 387.351C365.866 387.242 365.914 387.139 365.98 387.049C366.046 386.959 366.13 386.883 366.227 386.826L373.411 382.403L380.602 377.973C380.702 377.911 380.814 377.87 380.931 377.853C381.047 377.835 381.166 377.841 381.28 377.871C381.497 377.925 381.685 378.061 381.803 378.251C381.867 378.351 381.908 378.462 381.926 378.579C381.944 378.696 381.936 378.815 381.905 378.929C381.88 379.038 381.834 379.14 381.769 379.23C381.703 379.32 381.62 379.395 381.525 379.452L374.334 383.875L367.142 388.305C367.076 388.343 367.005 388.375 366.932 388.4C366.844 388.411 366.755 388.409 366.668 388.393Z" fill="#AD4D4D"/>
<path d="M369.3 393.095C369.163 393.094 369.029 393.061 368.907 393C368.78 392.933 368.673 392.835 368.595 392.715C368.533 392.623 368.49 392.52 368.467 392.412C368.445 392.304 368.445 392.192 368.466 392.084C368.512 391.862 368.643 391.667 368.832 391.541L372.55 389.072L376.274 386.595C376.462 386.472 376.69 386.427 376.91 386.472C377.13 386.516 377.324 386.646 377.448 386.833C377.51 386.926 377.554 387.03 377.575 387.14C377.597 387.25 377.597 387.363 377.575 387.472C377.553 387.582 377.509 387.686 377.447 387.779C377.384 387.872 377.304 387.952 377.21 388.013L373.493 390.483L369.768 392.952C369.698 393 369.62 393.037 369.538 393.061C369.461 393.086 369.381 393.097 369.3 393.095Z" fill="#AD4D4D"/>
<path d="M426.694 377.322V367.96C426.713 367.485 426.882 367.03 427.175 366.657C427.474 366.265 427.905 365.995 428.387 365.896C428.87 365.797 429.372 365.877 429.801 366.121C430.274 366.369 430.641 366.782 430.832 367.281L433.647 374.608L436.47 381.955V382.003C436.47 382.003 436.748 382.681 437.06 383.766C437.445 385.059 437.706 386.386 437.84 387.728C437.936 390.281 437.589 392.831 436.816 395.266C435.818 398.4 433.973 401.554 430.662 402.898C429.196 403.479 427.614 403.711 426.042 403.576C425.24 403.519 424.446 403.375 423.675 403.149C423.092 402.971 422.539 402.708 422.033 402.368C421.483 402.016 420.819 401.521 419.686 400.754C419.645 400.754 417.576 399.322 415.039 397.565C412.501 395.808 409.509 393.698 407.637 392.253C407.387 392.084 407.159 391.883 406.959 391.656C406.664 391.33 406.444 390.943 406.314 390.523C406.221 390.211 406.182 389.885 406.199 389.56C406.206 389.368 406.233 389.177 406.28 388.99C406.392 388.565 406.596 388.168 406.877 387.83C407.042 387.633 407.231 387.457 407.44 387.308C407.23 387.159 406.436 386.629 405.48 385.883C404.448 385.114 403.458 384.29 402.515 383.414C402.282 383.208 402.068 382.981 401.877 382.735C401.639 382.4 401.473 382.019 401.389 381.616C401.355 381.453 401.334 381.287 401.328 381.121C401.32 380.731 401.41 380.345 401.59 379.998C401.771 379.652 402.035 379.357 402.359 379.14C402.6 378.969 402.862 378.833 403.139 378.733C402.876 378.431 402.659 378.093 402.495 377.729C402.164 377.021 402.087 376.221 402.278 375.463C402.434 374.849 402.764 374.293 403.227 373.862C403.472 373.631 403.746 373.433 404.042 373.272C404.646 372.97 405.324 372.847 405.995 372.919C406.693 372.99 407.359 373.243 407.929 373.651C408.069 373.379 408.235 373.12 408.424 372.878C408.914 372.262 409.564 371.792 410.303 371.521C410.608 371.411 410.925 371.334 411.246 371.291C411.696 371.226 412.153 371.226 412.603 371.291C413.071 371.367 413.527 371.504 413.96 371.698L420.276 374.52L426.694 377.322Z" fill="#FFAA9F"/>
<path d="M421.314 383.027C421.234 383.026 421.154 383.014 421.076 382.993C420.997 382.971 420.922 382.936 420.853 382.891L414.204 378.611L407.556 374.33C407.365 374.208 407.231 374.015 407.183 373.794C407.158 373.685 407.156 373.573 407.175 373.463C407.195 373.354 407.237 373.249 407.298 373.156C407.358 373.062 407.436 372.981 407.528 372.918C407.62 372.855 407.724 372.811 407.834 372.79C407.943 372.765 408.055 372.763 408.165 372.782C408.274 372.802 408.379 372.844 408.472 372.905L415.12 377.186L421.775 381.467C421.962 381.589 422.094 381.78 422.141 381.998C422.188 382.217 422.147 382.445 422.026 382.634C421.949 382.756 421.841 382.856 421.714 382.925C421.591 382.992 421.454 383.027 421.314 383.027Z" fill="#AD4D4D"/>
<path d="M417.596 388.393C417.522 388.403 417.447 388.403 417.372 388.393C417.297 388.368 417.224 388.337 417.155 388.298L409.964 383.868L402.773 379.445C402.678 379.387 402.596 379.311 402.531 379.222C402.466 379.132 402.419 379.03 402.393 378.923C402.367 378.814 402.362 378.701 402.38 378.591C402.397 378.48 402.437 378.374 402.495 378.279C402.554 378.184 402.631 378.101 402.722 378.036C402.812 377.97 402.915 377.924 403.024 377.898C403.242 377.847 403.471 377.883 403.662 378L410.853 382.43L418.044 386.853C418.139 386.911 418.221 386.987 418.286 387.076C418.351 387.166 418.398 387.268 418.424 387.376C418.474 387.595 418.438 387.826 418.322 388.02C418.245 388.143 418.138 388.244 418.011 388.314C417.884 388.384 417.741 388.421 417.596 388.42V388.393Z" fill="#AD4D4D"/>
<path d="M414.971 393.094C414.89 393.108 414.807 393.108 414.726 393.094C414.644 393.071 414.566 393.034 414.496 392.986L410.778 390.517L407.053 388.047C406.96 387.986 406.879 387.906 406.818 387.813C406.756 387.72 406.714 387.615 406.694 387.504C406.671 387.395 406.669 387.283 406.69 387.173C406.711 387.064 406.754 386.959 406.816 386.867C406.878 386.774 406.958 386.694 407.052 386.633C407.145 386.571 407.249 386.528 407.359 386.507C407.577 386.463 407.804 386.507 407.99 386.629L411.714 389.105L415.439 391.575C415.532 391.636 415.613 391.716 415.675 391.809C415.736 391.902 415.778 392.007 415.798 392.118C415.822 392.225 415.824 392.337 415.803 392.446C415.782 392.554 415.739 392.657 415.676 392.748C415.598 392.869 415.491 392.967 415.364 393.033C415.239 393.084 415.105 393.104 414.971 393.094Z" fill="#AD4D4D"/>
</svg>
